DBRep_DrawableShape

CASCADE Topology V3, (c) Open Cascade
Locations 2
1
              1               0               0               0 
              0               1               0               0 
              0               0               1              27 
2  1 -1 0
Curve2ds 0
Curves 99
1 105.75 28.1554 -3 0 0 1 
1 105.75 17.5 -3 0 0 1 
1 105.75 28.1554 -3 0 -1 0 
1 106.7 17 -3 0 0 1 
1 105.75 17.5 -3 0.88491822238198292 -0.46574643283262118 0 
1 106.7 16 -3 0 0 1 
1 106.7 17 -3 0 -1 0 
1 105.75 15.5 -3 0 0 1 
1 106.7 16 -3 -0.88491822238198292 -0.46574643283262118 0 
1 105.75 14.5 -3 0 0 1 
1 105.75 15.5 -3 0 -1 0 
1 106.7 14 -3 0 0 1 
1 105.75 14.5 -3 0.88491822238198292 -0.46574643283262118 0 
1 106.7 13 -3 0 0 1 
1 106.7 14 -3 0 -1 0 
1 105.75 12.5 -3 0 0 1 
1 106.7 13 -3 -0.88491822238198292 -0.46574643283262118 0 
1 105.75 11.5 -3 0 0 1 
1 105.75 12.5 -3 0 -1 0 
1 106.7 11 -3 0 0 1 
1 105.75 11.5 -3 0.88491822238198292 -0.46574643283262118 0 
1 106.7 10 -3 0 0 1 
1 106.7 11 -3 0 -1 0 
1 105.75 9.5 -3 0 0 1 
1 106.7 10 -3 -0.88491822238198292 -0.46574643283262118 0 
1 105.75 8.5 -3 0 0 1 
1 105.75 9.5 -3 0 -1 0 
1 106.7 8 -3 0 0 1 
1 105.75 8.5 -3 0.88491822238198292 -0.46574643283262118 0 
1 106.7 7 -3 0 0 1 
1 106.7 8 -3 0 -1 0 
1 105.75 6.5 -3 0 0 1 
1 106.7 7 -3 -0.88491822238198292 -0.46574643283262118 0 
1 105.75 5.5 -3 0 0 1 
1 105.75 6.5 -3 0 -1 0 
1 106.7 5 -3 0 0 1 
1 105.75 5.5 -3 0.88491822238198292 -0.46574643283262118 0 
1 106.7 4 -3 0 0 1 
1 106.7 5 -3 0 -1 0 
1 105.75 3.5 -3 0 0 1 
1 106.7 4 -3 -0.88491822238198292 -0.46574643283262118 0 
1 105.75 2.5 -3 0 0 1 
1 105.75 3.5 -3 0 -1 0 
1 106.7 2 -3 0 0 1 
1 105.75 2.5 -3 0.88491822238198292 -0.46574643283262118 0 
1 106.7 1 -3 0 0 1 
1 106.7 2 -3 0 -1 0 
1 105.75 0.5 -3 0 0 1 
1 106.7 1 -3 -0.88491822238198292 -0.46574643283262118 0 
1 105.75 -0.5 -3 0 0 1 
1 105.75 0.5 -3 0 -1 0 
1 106.7 -1 -3 0 0 1 
1 105.75 -0.5 -3 0.88491822238198292 -0.46574643283262118 0 
1 106.7 -2 -3 0 0 1 
1 106.7 -1 -3 0 -1 0 
1 105.75 -2.5 -3 0 0 1 
1 106.7 -2 -3 -0.88491822238198292 -0.46574643283262118 0 
1 105.75 -3.5 -3 0 0 1 
1 105.75 -2.5 -3 0 -1 0 
1 106.7 -4 -3 0 0 1 
1 105.75 -3.5 -3 0.88491822238198292 -0.46574643283262118 0 
1 106.7 -5 -3 0 0 1 
1 106.7 -4 -3 0 -1 0 
1 105.75 -5.5 -3 0 0 1 
1 106.7 -5 -3 -0.88491822238198292 -0.46574643283262118 0 
1 105.75 -6.5 -3 0 0 1 
1 105.75 -5.5 -3 0 -1 0 
1 106.7 -7 -3 0 0 1 
1 105.75 -6.5 -3 0.88491822238198292 -0.46574643283262118 0 
1 106.7 -8 -3 0 0 1 
1 106.7 -7 -3 0 -1 0 
1 105.75 -8.5 -3 0 0 1 
1 106.7 -8 -3 -0.88491822238198292 -0.46574643283262118 0 
1 105.75 -9.5 -3 0 0 1 
1 105.75 -8.5 -3 0 -1 0 
1 106.7 -10 -3 0 0 1 
1 105.75 -9.5 -3 0.88491822238198292 -0.46574643283262118 0 
1 106.7 -11 -3 0 0 1 
1 106.7 -10 -3 0 -1 0 
1 105.75 -11.5 -3 0 0 1 
1 106.7 -11 -3 -0.88491822238198292 -0.46574643283262118 0 
1 105.75 -12.5 -3 0 0 1 
1 105.75 -11.5 -3 0 -1 0 
1 106.7 -13 -3 0 0 1 
1 105.75 -12.5 -3 0.88491822238198292 -0.46574643283262118 0 
1 106.7 -14 -3 0 0 1 
1 106.7 -13 -3 0 -1 0 
1 105.75 -14.5 -3 0 0 1 
1 106.7 -14 -3 -0.88491822238198292 -0.46574643283262118 0 
1 105.75 -15.5 -3 0 0 1 
1 105.75 -14.5 -3 0 -1 0 
1 106.7 -16 -3 0 0 1 
1 105.75 -15.5 -3 0.88491822238198292 -0.46574643283262118 0 
1 106.7 -17 -3 0 0 1 
1 106.7 -16 -3 0 -1 0 
1 105.75 -17.5 -3 0 0 1 
1 106.7 -17 -3 -0.88491822238198292 -0.46574643283262118 0 
1 105.75 -28.1554 -3 0 0 1 
1 105.75 -17.5 -3 0 -1 0 
Polygon3D 1
2 1
0.0426216008
105.75 28.1554 -3 105.75 17.5 -3 
0 10.6554 
PolygonOnTriangulations 196
2 1 2 
p 0.2252432008 1 0 27 
2 4 3 
p 0.2252432008 1 0 27 
2 1 2 
p 0.2252432008 1 0 27 
2 1 4 
p 0.2252432008 1 0 10.6554 
2 2 3 
p 0.2252432008 1 0 10.6554 
2 4 3 
p 0.2252432008 1 0 27 
2 1 2 
p 0.2252432008 1 0 27 
2 1 4 
p 0.2252432008 1 0 1.0735455276792 
2 2 3 
p 0.2252432008 1 0 1.0735455276792 
2 4 3 
p 0.2252432008 1 0 27 
2 1 2 
p 0.2252432008 1 0 27 
2 1 4 
p 0.2252432008 1 0 1 
2 2 3 
p 0.2252432008 1 0 1 
2 4 3 
p 0.2252432008 1 0 27 
2 1 2 
p 0.2252432008 1 0 27 
2 1 4 
p 0.2252432008 1 0 1.0735455276792 
2 2 3 
p 0.2252432008 1 0 1.0735455276792 
2 4 3 
p 0.2252432008 1 0 27 
2 1 2 
p 0.2252432008 1 0 27 
2 1 4 
p 0.2252432008 1 0 1 
2 2 3 
p 0.2252432008 1 0 1 
2 4 3 
p 0.2252432008 1 0 27 
2 1 2 
p 0.2252432008 1 0 27 
2 1 4 
p 0.2252432008 1 0 1.0735455276792 
2 2 3 
p 0.2252432008 1 0 1.0735455276792 
2 4 3 
p 0.2252432008 1 0 27 
2 1 2 
p 0.2252432008 1 0 27 
2 1 4 
p 0.2252432008 1 0 1 
2 2 3 
p 0.2252432008 1 0 1 
2 4 3 
p 0.2252432008 1 0 27 
2 1 2 
p 0.2252432008 1 0 27 
2 1 4 
p 0.2252432008 1 0 1.0735455276792 
2 2 3 
p 0.2252432008 1 0 1.0735455276792 
2 4 3 
p 0.2252432008 1 0 27 
2 1 2 
p 0.2252432008 1 0 27 
2 1 4 
p 0.2252432008 1 0 1 
2 2 3 
p 0.2252432008 1 0 1 
2 4 3 
p 0.2252432008 1 0 27 
2 1 2 
p 0.2252432008 1 0 27 
2 1 4 
p 0.2252432008 1 0 1.0735455276792 
2 2 3 
p 0.2252432008 1 0 1.0735455276792 
2 4 3 
p 0.2252432008 1 0 27 
2 1 2 
p 0.2252432008 1 0 27 
2 1 4 
p 0.2252432008 1 0 1 
2 2 3 
p 0.2252432008 1 0 1 
2 4 3 
p 0.2252432008 1 0 27 
2 1 2 
p 0.2252432008 1 0 27 
2 1 4 
p 0.2252432008 1 0 1.0735455276792 
2 2 3 
p 0.2252432008 1 0 1.0735455276792 
2 4 3 
p 0.2252432008 1 0 27 
2 1 2 
p 0.2252432008 1 0 27 
2 1 4 
p 0.2252432008 1 0 1 
2 2 3 
p 0.2252432008 1 0 1 
2 4 3 
p 0.2252432008 1 0 27 
2 1 2 
p 0.2252432008 1 0 27 
2 1 4 
p 0.2252432008 1 0 1.0735455276792 
2 2 3 
p 0.2252432008 1 0 1.0735455276792 
2 4 3 
p 0.2252432008 1 0 27 
2 1 2 
p 0.2252432008 1 0 27 
2 1 4 
p 0.2252432008 1 0 1 
2 2 3 
p 0.2252432008 1 0 1 
2 4 3 
p 0.2252432008 1 0 27 
2 1 2 
p 0.2252432008 1 0 27 
2 1 4 
p 0.2252432008 1 0 1.0735455276792 
2 2 3 
p 0.2252432008 1 0 1.0735455276792 
2 4 3 
p 0.2252432008 1 0 27 
2 1 2 
p 0.2252432008 1 0 27 
2 1 4 
p 0.2252432008 1 0 1 
2 2 3 
p 0.2252432008 1 0 1 
2 4 3 
p 0.2252432008 1 0 27 
2 1 2 
p 0.2252432008 1 0 27 
2 1 4 
p 0.2252432008 1 0 1.0735455276792 
2 2 3 
p 0.2252432008 1 0 1.0735455276792 
2 4 3 
p 0.2252432008 1 0 27 
2 1 2 
p 0.2252432008 1 0 27 
2 1 4 
p 0.2252432008 1 0 1 
2 2 3 
p 0.2252432008 1 0 1 
2 4 3 
p 0.2252432008 1 0 27 
2 1 2 
p 0.2252432008 1 0 27 
2 1 4 
p 0.2252432008 1 0 1.0735455276792 
2 2 3 
p 0.2252432008 1 0 1.0735455276792 
2 4 3 
p 0.2252432008 1 0 27 
2 1 2 
p 0.2252432008 1 0 27 
2 1 4 
p 0.2252432008 1 0 1 
2 2 3 
p 0.2252432008 1 0 1 
2 4 3 
p 0.2252432008 1 0 27 
2 1 2 
p 0.2252432008 1 0 27 
2 1 4 
p 0.2252432008 1 0 1.0735455276792 
2 2 3 
p 0.2252432008 1 0 1.0735455276792 
2 4 3 
p 0.2252432008 1 0 27 
2 1 2 
p 0.2252432008 1 0 27 
2 1 4 
p 0.2252432008 1 0 1 
2 2 3 
p 0.2252432008 1 0 1 
2 4 3 
p 0.2252432008 1 0 27 
2 1 2 
p 0.2252432008 1 0 27 
2 1 4 
p 0.2252432008 1 0 1.0735455276792 
2 2 3 
p 0.2252432008 1 0 1.0735455276792 
2 4 3 
p 0.2252432008 1 0 27 
2 1 2 
p 0.2252432008 1 0 27 
2 1 4 
p 0.2252432008 1 0 1 
2 2 3 
p 0.2252432008 1 0 1 
2 4 3 
p 0.2252432008 1 0 27 
2 1 2 
p 0.2252432008 1 0 27 
2 1 4 
p 0.2252432008 1 0 1.0735455276792 
2 2 3 
p 0.2252432008 1 0 1.0735455276792 
2 4 3 
p 0.2252432008 1 0 27 
2 1 2 
p 0.2252432008 1 0 27 
2 1 4 
p 0.2252432008 1 0 1 
2 2 3 
p 0.2252432008 1 0 1 
2 4 3 
p 0.2252432008 1 0 27 
2 1 2 
p 0.2252432008 1 0 27 
2 1 4 
p 0.2252432008 1 0 1.0735455276792 
2 2 3 
p 0.2252432008 1 0 1.0735455276792 
2 4 3 
p 0.2252432008 1 0 27 
2 1 2 
p 0.2252432008 1 0 27 
2 1 4 
p 0.2252432008 1 0 1 
2 2 3 
p 0.2252432008 1 0 1 
2 4 3 
p 0.2252432008 1 0 27 
2 1 2 
p 0.2252432008 1 0 27 
2 1 4 
p 0.2252432008 1 0 1.0735455276792 
2 2 3 
p 0.2252432008 1 0 1.0735455276792 
2 4 3 
p 0.2252432008 1 0 27 
2 1 2 
p 0.2252432008 1 0 27 
2 1 4 
p 0.2252432008 1 0 1 
2 2 3 
p 0.2252432008 1 0 1 
2 4 3 
p 0.2252432008 1 0 27 
2 1 2 
p 0.2252432008 1 0 27 
2 1 4 
p 0.2252432008 1 0 1.0735455276792 
2 2 3 
p 0.2252432008 1 0 1.0735455276792 
2 4 3 
p 0.2252432008 1 0 27 
2 1 2 
p 0.2252432008 1 0 27 
2 1 4 
p 0.2252432008 1 0 1 
2 2 3 
p 0.2252432008 1 0 1 
2 4 3 
p 0.2252432008 1 0 27 
2 1 2 
p 0.2252432008 1 0 27 
2 1 4 
p 0.2252432008 1 0 1.0735455276792 
2 2 3 
p 0.2252432008 1 0 1.0735455276792 
2 4 3 
p 0.2252432008 1 0 27 
2 1 2 
p 0.2252432008 1 0 27 
2 1 4 
p 0.2252432008 1 0 1 
2 2 3 
p 0.2252432008 1 0 1 
2 4 3 
p 0.2252432008 1 0 27 
2 1 2 
p 0.2252432008 1 0 27 
2 1 4 
p 0.2252432008 1 0 1.0735455276792 
2 2 3 
p 0.2252432008 1 0 1.0735455276792 
2 4 3 
p 0.2252432008 1 0 27 
2 1 2 
p 0.2252432008 1 0 27 
2 1 4 
p 0.2252432008 1 0 1 
2 2 3 
p 0.2252432008 1 0 1 
2 4 3 
p 0.2252432008 1 0 27 
2 1 2 
p 0.2252432008 1 0 27 
2 1 4 
p 0.2252432008 1 0 1.0735455276792 
2 2 3 
p 0.2252432008 1 0 1.0735455276792 
2 4 3 
p 0.2252432008 1 0 27 
2 1 2 
p 0.2252432008 1 0 27 
2 1 4 
p 0.2252432008 1 0 1 
2 2 3 
p 0.2252432008 1 0 1 
2 4 3 
p 0.2252432008 1 0 27 
2 1 2 
p 0.2252432008 1 0 27 
2 1 4 
p 0.2252432008 1 0 1.0735455276792 
2 2 3 
p 0.2252432008 1 0 1.0735455276792 
2 4 3 
p 0.2252432008 1 0 27 
2 1 2 
p 0.2252432008 1 0 27 
2 1 4 
p 0.2252432008 1 0 1 
2 2 3 
p 0.2252432008 1 0 1 
2 4 3 
p 0.2252432008 1 0 27 
2 1 2 
p 0.2252432008 1 0 27 
2 1 4 
p 0.2252432008 1 0 1.0735455276792 
2 2 3 
p 0.2252432008 1 0 1.0735455276792 
2 4 3 
p 0.2252432008 1 0 27 
2 1 2 
p 0.2252432008 1 0 27 
2 1 4 
p 0.2252432008 1 0 1 
2 2 3 
p 0.2252432008 1 0 1 
2 4 3 
p 0.2252432008 1 0 27 
2 1 2 
p 0.2252432008 1 0 27 
2 1 4 
p 0.2252432008 1 0 1.0735455276792 
2 2 3 
p 0.2252432008 1 0 1.0735455276792 
2 4 3 
p 0.2252432008 1 0 27 
2 1 2 
p 0.2252432008 1 0 27 
2 1 4 
p 0.2252432008 1 0 1 
2 2 3 
p 0.2252432008 1 0 1 
2 4 3 
p 0.2252432008 1 0 27 
2 1 2 
p 0.2252432008 1 0 27 
2 1 4 
p 0.2252432008 1 0 1.0735455276792 
2 2 3 
p 0.2252432008 1 0 1.0735455276792 
2 4 3 
p 0.2252432008 1 0 27 
2 1 2 
p 0.2252432008 1 0 27 
2 1 4 
p 0.2252432008 1 0 1 
2 2 3 
p 0.2252432008 1 0 1 
2 4 3 
p 0.2252432008 1 0 27 
2 1 2 
p 0.2252432008 1 0 27 
2 1 4 
p 0.2252432008 1 0 1.0735455276792 
2 2 3 
p 0.2252432008 1 0 1.0735455276792 
2 4 3 
p 0.2252432008 1 0 27 
2 1 4 
p 0.2252432008 1 0 10.6554 
2 2 3 
p 0.2252432008 1 0 10.6554 
Surfaces 49
1 105.75 28.1554 -3 1 0 -0 0 -1 0 0 -0 -1 
1 105.75 17.5 -3 0.46574643283262124 0.88491822238198303 -0 0.88491822238198303 -0.46574643283262124 0 0 -0 -1 
1 106.7 17 -3 1 0 -0 0 -1 0 0 -0 -1 
1 106.7 16 -3 0.46574643283262124 -0.88491822238198303 0 -0.88491822238198303 -0.46574643283262124 0 0 -0 -1 
1 105.75 15.5 -3 1 0 -0 0 -1 0 0 -0 -1 
1 105.75 14.5 -3 0.46574643283262124 0.88491822238198303 -0 0.88491822238198303 -0.46574643283262124 0 0 -0 -1 
1 106.7 14 -3 1 0 -0 0 -1 0 0 -0 -1 
1 106.7 13 -3 0.46574643283262124 -0.88491822238198303 0 -0.88491822238198303 -0.46574643283262124 0 0 -0 -1 
1 105.75 12.5 -3 1 0 -0 0 -1 0 0 -0 -1 
1 105.75 11.5 -3 0.46574643283262124 0.88491822238198303 -0 0.88491822238198303 -0.46574643283262124 0 0 -0 -1 
1 106.7 11 -3 1 0 -0 0 -1 0 0 -0 -1 
1 106.7 10 -3 0.46574643283262124 -0.88491822238198303 0 -0.88491822238198303 -0.46574643283262124 0 0 -0 -1 
1 105.75 9.5 -3 1 0 -0 0 -1 0 0 -0 -1 
1 105.75 8.5 -3 0.46574643283262124 0.88491822238198303 -0 0.88491822238198303 -0.46574643283262124 0 0 -0 -1 
1 106.7 8 -3 1 0 -0 0 -1 0 0 -0 -1 
1 106.7 7 -3 0.46574643283262124 -0.88491822238198303 0 -0.88491822238198303 -0.46574643283262124 0 0 -0 -1 
1 105.75 6.5 -3 1 0 -0 0 -1 0 0 -0 -1 
1 105.75 5.5 -3 0.46574643283262124 0.88491822238198303 -0 0.88491822238198303 -0.46574643283262124 0 0 -0 -1 
1 106.7 5 -3 1 0 -0 0 -1 0 0 -0 -1 
1 106.7 4 -3 0.46574643283262124 -0.88491822238198303 0 -0.88491822238198303 -0.46574643283262124 0 0 -0 -1 
1 105.75 3.5 -3 1 0 -0 0 -1 0 0 -0 -1 
1 105.75 2.5 -3 0.46574643283262124 0.88491822238198303 -0 0.88491822238198303 -0.46574643283262124 0 0 -0 -1 
1 106.7 2 -3 1 0 -0 0 -1 0 0 -0 -1 
1 106.7 1 -3 0.46574643283262124 -0.88491822238198303 0 -0.88491822238198303 -0.46574643283262124 0 0 -0 -1 
1 105.75 0.5 -3 1 0 -0 0 -1 0 0 -0 -1 
1 105.75 -0.5 -3 0.46574643283262124 0.88491822238198303 -0 0.88491822238198303 -0.46574643283262124 0 0 -0 -1 
1 106.7 -1 -3 1 0 -0 0 -1 0 0 -0 -1 
1 106.7 -2 -3 0.46574643283262124 -0.88491822238198303 0 -0.88491822238198303 -0.46574643283262124 0 0 -0 -1 
1 105.75 -2.5 -3 1 0 -0 0 -1 0 0 -0 -1 
1 105.75 -3.5 -3 0.46574643283262124 0.88491822238198303 -0 0.88491822238198303 -0.46574643283262124 0 0 -0 -1 
1 106.7 -4 -3 1 0 -0 0 -1 0 0 -0 -1 
1 106.7 -5 -3 0.46574643283262124 -0.88491822238198303 0 -0.88491822238198303 -0.46574643283262124 0 0 -0 -1 
1 105.75 -5.5 -3 1 0 -0 0 -1 0 0 -0 -1 
1 105.75 -6.5 -3 0.46574643283262124 0.88491822238198303 -0 0.88491822238198303 -0.46574643283262124 0 0 -0 -1 
1 106.7 -7 -3 1 0 -0 0 -1 0 0 -0 -1 
1 106.7 -8 -3 0.46574643283262124 -0.88491822238198303 0 -0.88491822238198303 -0.46574643283262124 0 0 -0 -1 
1 105.75 -8.5 -3 1 0 -0 0 -1 0 0 -0 -1 
1 105.75 -9.5 -3 0.46574643283262124 0.88491822238198303 -0 0.88491822238198303 -0.46574643283262124 0 0 -0 -1 
1 106.7 -10 -3 1 0 -0 0 -1 0 0 -0 -1 
1 106.7 -11 -3 0.46574643283262124 -0.88491822238198303 0 -0.88491822238198303 -0.46574643283262124 0 0 -0 -1 
1 105.75 -11.5 -3 1 0 -0 0 -1 0 0 -0 -1 
1 105.75 -12.5 -3 0.46574643283262124 0.88491822238198303 -0 0.88491822238198303 -0.46574643283262124 0 0 -0 -1 
1 106.7 -13 -3 1 0 -0 0 -1 0 0 -0 -1 
1 106.7 -14 -3 0.46574643283262124 -0.88491822238198303 0 -0.88491822238198303 -0.46574643283262124 0 0 -0 -1 
1 105.75 -14.5 -3 1 0 -0 0 -1 0 0 -0 -1 
1 105.75 -15.5 -3 0.46574643283262124 0.88491822238198303 -0 0.88491822238198303 -0.46574643283262124 0 0 -0 -1 
1 106.7 -16 -3 1 0 -0 0 -1 0 0 -0 -1 
1 106.7 -17 -3 0.46574643283262124 -0.88491822238198303 0 -0.88491822238198303 -0.46574643283262124 0 0 -0 -1 
1 105.75 -17.5 -3 1 0 -0 0 -1 0 0 -0 -1 
Triangulations 49
4 2 1 0 0
105.75 28.1554 -3 105.75 28.1554 24 105.75 17.5 24 105.75 17.5 -3 0 0 0 -27 10.6554 -27 10.6554 0 4 1 2 4 2 3 
4 2 1 0 1.4210854715202e-14
105.75 17.5 -3 105.75 17.5 24 106.7 17 24 106.7 17 -3 0 0 0 -27 1.0735455276792 -27 1.0735455276792 0 1 2 3 4 1 3 
4 2 1 0 0
106.7 17 -3 106.7 17 24 106.7 16 24 106.7 16 -3 0 0 0 -27 1 -27 1 0 4 1 2 4 2 3 
4 2 1 0 1.4210854715202e-14
106.7 16 -3 106.7 16 24 105.75 15.5 24 105.75 15.5 -3 0 0 0 -27 1.0735455276792 -27 1.0735455276792 0 4 1 2 4 2 3 
4 2 1 0 0
105.75 15.5 -3 105.75 15.5 24 105.75 14.5 24 105.75 14.5 -3 0 0 0 -27 1 -27 1 0 4 1 2 4 2 3 
4 2 1 0 1.4210854715202e-14
105.75 14.5 -3 105.75 14.5 24 106.7 14 24 106.7 14 -3 0 0 0 -27 1.0735455276792 -27 1.0735455276792 0 4 1 2 4 2 3 
4 2 1 0 0
106.7 14 -3 106.7 14 24 106.7 13 24 106.7 13 -3 0 0 0 -27 1 -27 1 0 4 1 2 4 2 3 
4 2 1 0 1.4210854715202e-14
106.7 13 -3 106.7 13 24 105.75 12.5 24 105.75 12.5 -3 0 0 0 -27 1.0735455276792 -27 1.0735455276792 0 4 1 2 4 2 3 
4 2 1 0 0
105.75 12.5 -3 105.75 12.5 24 105.75 11.5 24 105.75 11.5 -3 0 0 0 -27 1 -27 1 0 4 1 2 4 2 3 
4 2 1 0 1.4210854715202e-14
105.75 11.5 -3 105.75 11.5 24 106.7 11 24 106.7 11 -3 0 0 0 -27 1.0735455276792 -27 1.0735455276792 0 4 1 2 4 2 3 
4 2 1 0 0
106.7 11 -3 106.7 11 24 106.7 10 24 106.7 10 -3 0 0 0 -27 1 -27 1 0 4 1 2 4 2 3 
4 2 1 0 1.4210854715202e-14
106.7 10 -3 106.7 10 24 105.75 9.5 24 105.75 9.5 -3 0 0 0 -27 1.0735455276792 -27 1.0735455276792 0 4 1 2 4 2 3 
4 2 1 0 0
105.75 9.5 -3 105.75 9.5 24 105.75 8.5 24 105.75 8.5 -3 0 0 0 -27 1 -27 1 0 4 1 2 4 2 3 
4 2 1 0 1.4210854715202e-14
105.75 8.5 -3 105.75 8.5 24 106.7 8 24 106.7 8 -3 0 0 0 -27 1.0735455276792 -27 1.0735455276792 0 4 1 2 4 2 3 
4 2 1 0 0
106.7 8 -3 106.7 8 24 106.7 7 24 106.7 7 -3 0 0 0 -27 1 -27 1 0 4 1 2 4 2 3 
4 2 1 0 1.4210854715202e-14
106.7 7 -3 106.7 7 24 105.75 6.5 24 105.75 6.5 -3 0 0 0 -27 1.0735455276792 -27 1.0735455276792 0 1 2 3 4 1 3 
4 2 1 0 0
105.75 6.5 -3 105.75 6.5 24 105.75 5.5 24 105.75 5.5 -3 0 0 0 -27 1 -27 1 0 4 1 2 4 2 3 
4 2 1 0 1.4210854715202e-14
105.75 5.5 -3 105.75 5.5 24 106.7 5 24 106.7 5 -3 0 0 0 -27 1.0735455276792 -27 1.0735455276792 0 1 2 3 4 1 3 
4 2 1 0 0
106.7 5 -3 106.7 5 24 106.7 4 24 106.7 4 -3 0 0 0 -27 1 -27 1 0 4 1 2 4 2 3 
4 2 1 0 1.4210854715202e-14
106.7 4 -3 106.7 4 24 105.75 3.5 24 105.75 3.5 -3 0 0 0 -27 1.0735455276792 -27 1.0735455276792 0 4 1 2 4 2 3 
4 2 1 0 0
105.75 3.5 -3 105.75 3.5 24 105.75 2.5 24 105.75 2.5 -3 0 0 0 -27 1 -27 1 0 4 1 2 4 2 3 
4 2 1 0 1.4210854715202e-14
105.75 2.5 -3 105.75 2.5 24 106.7 2 24 106.7 2 -3 0 0 0 -27 1.0735455276792 -27 1.0735455276792 0 4 1 2 4 2 3 
4 2 1 0 2.22044604925031e-16
106.7 2 -3 106.7 2 24 106.7 1 24 106.7 1 -3 0 0 0 -27 1 -27 1 0 4 1 2 4 2 3 
4 2 1 0 1.42112883894538e-14
106.7 1 -3 106.7 1 24 105.75 0.5 24 105.75 0.5 -3 0 0 0 -27 1.0735455276792 -27 1.0735455276792 0 1 2 3 4 1 3 
4 2 1 0 2.77555756156289e-17
105.75 0.5 -3 105.75 0.5 24 105.75 -0.5 24 105.75 -0.5 -3 0 0 0 -27 1 -27 1 0 4 1 2 4 2 3 
4 2 1 0 1.4210854715202e-14
105.75 -0.5 -3 105.75 -0.5 24 106.7 -1 24 106.7 -1 -3 0 0 0 -27 1.0735455276792 -27 1.0735455276792 0 1 2 3 4 1 3 
4 2 1 0 2.22044604925031e-16
106.7 -1 -3 106.7 -1 24 106.7 -2 24 106.7 -2 -3 0 0 0 -27 1 -27 1 0 4 1 2 4 2 3 
4 2 1 0 1.4210854715202e-14
106.7 -2 -3 106.7 -2 24 105.75 -2.5 24 105.75 -2.5 -3 0 0 0 -27 1.0735455276792 -27 1.0735455276792 0 4 1 2 4 2 3 
4 2 1 0 0
105.75 -2.5 -3 105.75 -2.5 24 105.75 -3.5 24 105.75 -3.5 -3 0 0 0 -27 1 -27 1 0 4 1 2 4 2 3 
4 2 1 0 1.4210854715202e-14
105.75 -3.5 -3 105.75 -3.5 24 106.7 -4 24 106.7 -4 -3 0 0 0 -27 1.0735455276792 -27 1.0735455276792 0 4 1 2 4 2 3 
4 2 1 0 0
106.7 -4 -3 106.7 -4 24 106.7 -5 24 106.7 -5 -3 0 0 0 -27 1 -27 1 0 4 1 2 4 2 3 
4 2 1 0 1.4210854715202e-14
106.7 -5 -3 106.7 -5 24 105.75 -5.5 24 105.75 -5.5 -3 0 0 0 -27 1.0735455276792 -27 1.0735455276792 0 1 2 3 4 1 3 
4 2 1 0 0
105.75 -5.5 -3 105.75 -5.5 24 105.75 -6.5 24 105.75 -6.5 -3 0 0 0 -27 1 -27 1 0 4 1 2 4 2 3 
4 2 1 0 1.4210854715202e-14
105.75 -6.5 -3 105.75 -6.5 24 106.7 -7 24 106.7 -7 -3 0 0 0 -27 1.0735455276792 -27 1.0735455276792 0 1 2 3 4 1 3 
4 2 1 0 0
106.7 -7 -3 106.7 -7 24 106.7 -8 24 106.7 -8 -3 0 0 0 -27 1 -27 1 0 4 1 2 4 2 3 
4 2 1 0 1.4210854715202e-14
106.7 -8 -3 106.7 -8 24 105.75 -8.5 24 105.75 -8.5 -3 0 0 0 -27 1.0735455276792 -27 1.0735455276792 0 4 1 2 4 2 3 
4 2 1 0 0
105.75 -8.5 -3 105.75 -8.5 24 105.75 -9.5 24 105.75 -9.5 -3 0 0 0 -27 1 -27 1 0 4 1 2 4 2 3 
4 2 1 0 1.4210854715202e-14
105.75 -9.5 -3 105.75 -9.5 24 106.7 -10 24 106.7 -10 -3 0 0 0 -27 1.0735455276792 -27 1.0735455276792 0 4 1 2 4 2 3 
4 2 1 0 0
106.7 -10 -3 106.7 -10 24 106.7 -11 24 106.7 -11 -3 0 0 0 -27 1 -27 1 0 4 1 2 4 2 3 
4 2 1 0 1.4210854715202e-14
106.7 -11 -3 106.7 -11 24 105.75 -11.5 24 105.75 -11.5 -3 0 0 0 -27 1.0735455276792 -27 1.0735455276792 0 4 1 2 4 2 3 
4 2 1 0 0
105.75 -11.5 -3 105.75 -11.5 24 105.75 -12.5 24 105.75 -12.5 -3 0 0 0 -27 1 -27 1 0 4 1 2 4 2 3 
4 2 1 0 1.4210854715202e-14
105.75 -12.5 -3 105.75 -12.5 24 106.7 -13 24 106.7 -13 -3 0 0 0 -27 1.0735455276792 -27 1.0735455276792 0 4 1 2 4 2 3 
4 2 1 0 0
106.7 -13 -3 106.7 -13 24 106.7 -14 24 106.7 -14 -3 0 0 0 -27 1 -27 1 0 4 1 2 4 2 3 
4 2 1 0 1.4210854715202e-14
106.7 -14 -3 106.7 -14 24 105.75 -14.5 24 105.75 -14.5 -3 0 0 0 -27 1.0735455276792 -27 1.0735455276792 0 4 1 2 4 2 3 
4 2 1 0 0
105.75 -14.5 -3 105.75 -14.5 24 105.75 -15.5 24 105.75 -15.5 -3 0 0 0 -27 1 -27 1 0 4 1 2 4 2 3 
4 2 1 0 1.4210854715202e-14
105.75 -15.5 -3 105.75 -15.5 24 106.7 -16 24 106.7 -16 -3 0 0 0 -27 1.0735455276792 -27 1.0735455276792 0 4 1 2 4 2 3 
4 2 1 0 0
106.7 -16 -3 106.7 -16 24 106.7 -17 24 106.7 -17 -3 0 0 0 -27 1 -27 1 0 4 1 2 4 2 3 
4 2 1 0 1.4210854715202e-14
106.7 -17 -3 106.7 -17 24 105.75 -17.5 24 105.75 -17.5 -3 0 0 0 -27 1.0735455276792 -27 1.0735455276792 0 1 2 3 4 1 3 
4 2 1 0 0
105.75 -17.5 -3 105.75 -17.5 24 105.75 -28.1554 24 105.75 -28.1554 -3 0 0 0 -27 10.6554 -27 10.6554 0 4 1 2 4 2 3 

TShapes 248
Ve
1e-07
105.75 28.1554 -3
0 0

0101101
*
Ed
 1e-07 1 1 0
1  1 0 0 27
6  1 1 0
0

0101000
+248 0 -248 1 *
Ve
1e-07
105.75 17.5 -3
0 0

0101101
*
Ed
 1e-07 1 1 0
1  2 0 0 27
6  2 1 0
6  3 2 0
0

0101000
+246 0 -246 1 *
Ed
 1e-07 1 1 0
1  3 0 0 10.6554
5  1 0
6  4 1 0
6  5 1 2
0

0101000
+248 0 -246 0 *
Wi

0101100
+247 0 -245 0 -244 0 +244 1 *
Fa
0  1e-07 1 0
2  1
0101000
+243 0 *
Ve
1e-07
106.7 17 -3
0 0

0101101
*
Ed
 1e-07 1 1 0
1  4 0 0 27
6  6 2 0
6  7 3 0
0

0101000
+241 0 -241 1 *
Ed
 1e-07 1 1 0
1  5 0 0 1.0735455276792
6  8 2 0
6  9 2 2
0

0101000
+246 0 -241 0 *
Wi

0101100
+245 0 -240 0 -239 0 +239 1 *
Fa
0  1e-07 2 0
2  2
0101000
+238 0 *
Ve
1e-07
106.7 16 -3
0 0

0101101
*
Ed
 1e-07 1 1 0
1  6 0 0 27
6  10 3 0
6  11 4 0
0

0101000
+236 0 -236 1 *
Ed
 1e-07 1 1 0
1  7 0 0 1
6  12 3 0
6  13 3 2
0

0101000
+241 0 -236 0 *
Wi

0101100
+240 0 -235 0 -234 0 +234 1 *
Fa
0  1e-07 3 0
2  3
0101000
+233 0 *
Ve
1e-07
105.75 15.5 -3
0 0

0101101
*
Ed
 1e-07 1 1 0
1  8 0 0 27
6  14 4 0
6  15 5 0
0

0101000
+231 0 -231 1 *
Ed
 1e-07 1 1 0
1  9 0 0 1.0735455276792
6  16 4 0
6  17 4 2
0

0101000
+236 0 -231 0 *
Wi

0101100
+235 0 -230 0 -229 0 +229 1 *
Fa
0  1e-07 4 0
2  4
0101000
+228 0 *
Ve
1e-07
105.75 14.5 -3
0 0

0101101
*
Ed
 1e-07 1 1 0
1  10 0 0 27
6  18 5 0
6  19 6 0
0

0101000
+226 0 -226 1 *
Ed
 1e-07 1 1 0
1  11 0 0 1
6  20 5 0
6  21 5 2
0

0101000
+231 0 -226 0 *
Wi

0101100
+230 0 -225 0 -224 0 +224 1 *
Fa
0  1e-07 5 0
2  5
0101000
+223 0 *
Ve
1e-07
106.7 14 -3
0 0

0101101
*
Ed
 1e-07 1 1 0
1  12 0 0 27
6  22 6 0
6  23 7 0
0

0101000
+221 0 -221 1 *
Ed
 1e-07 1 1 0
1  13 0 0 1.0735455276792
6  24 6 0
6  25 6 2
0

0101000
+226 0 -221 0 *
Wi

0101100
+225 0 -220 0 -219 0 +219 1 *
Fa
0  1e-07 6 0
2  6
0101000
+218 0 *
Ve
1e-07
106.7 13 -3
0 0

0101101
*
Ed
 1e-07 1 1 0
1  14 0 0 27
6  26 7 0
6  27 8 0
0

0101000
+216 0 -216 1 *
Ed
 1e-07 1 1 0
1  15 0 0 1
6  28 7 0
6  29 7 2
0

0101000
+221 0 -216 0 *
Wi

0101100
+220 0 -215 0 -214 0 +214 1 *
Fa
0  1e-07 7 0
2  7
0101000
+213 0 *
Ve
1e-07
105.75 12.5 -3
0 0

0101101
*
Ed
 1e-07 1 1 0
1  16 0 0 27
6  30 8 0
6  31 9 0
0

0101000
+211 0 -211 1 *
Ed
 1e-07 1 1 0
1  17 0 0 1.0735455276792
6  32 8 0
6  33 8 2
0

0101000
+216 0 -211 0 *
Wi

0101100
+215 0 -210 0 -209 0 +209 1 *
Fa
0  1e-07 8 0
2  8
0101000
+208 0 *
Ve
1e-07
105.75 11.5 -3
0 0

0101101
*
Ed
 1e-07 1 1 0
1  18 0 0 27
6  34 9 0
6  35 10 0
0

0101000
+206 0 -206 1 *
Ed
 1e-07 1 1 0
1  19 0 0 1
6  36 9 0
6  37 9 2
0

0101000
+211 0 -206 0 *
Wi

0101100
+210 0 -205 0 -204 0 +204 1 *
Fa
0  1e-07 9 0
2  9
0101000
+203 0 *
Ve
1e-07
106.7 11 -3
0 0

0101101
*
Ed
 1e-07 1 1 0
1  20 0 0 27
6  38 10 0
6  39 11 0
0

0101000
+201 0 -201 1 *
Ed
 1e-07 1 1 0
1  21 0 0 1.0735455276792
6  40 10 0
6  41 10 2
0

0101000
+206 0 -201 0 *
Wi

0101100
+205 0 -200 0 -199 0 +199 1 *
Fa
0  1e-07 10 0
2  10
0101000
+198 0 *
Ve
1e-07
106.7 10 -3
0 0

0101101
*
Ed
 1e-07 1 1 0
1  22 0 0 27
6  42 11 0
6  43 12 0
0

0101000
+196 0 -196 1 *
Ed
 1e-07 1 1 0
1  23 0 0 1
6  44 11 0
6  45 11 2
0

0101000
+201 0 -196 0 *
Wi

0101100
+200 0 -195 0 -194 0 +194 1 *
Fa
0  1e-07 11 0
2  11
0101000
+193 0 *
Ve
1e-07
105.75 9.5 -3
0 0

0101101
*
Ed
 1e-07 1 1 0
1  24 0 0 27
6  46 12 0
6  47 13 0
0

0101000
+191 0 -191 1 *
Ed
 1e-07 1 1 0
1  25 0 0 1.0735455276792
6  48 12 0
6  49 12 2
0

0101000
+196 0 -191 0 *
Wi

0101100
+195 0 -190 0 -189 0 +189 1 *
Fa
0  1e-07 12 0
2  12
0101000
+188 0 *
Ve
1e-07
105.75 8.5 -3
0 0

0101101
*
Ed
 1e-07 1 1 0
1  26 0 0 27
6  50 13 0
6  51 14 0
0

0101000
+186 0 -186 1 *
Ed
 1e-07 1 1 0
1  27 0 0 1
6  52 13 0
6  53 13 2
0

0101000
+191 0 -186 0 *
Wi

0101100
+190 0 -185 0 -184 0 +184 1 *
Fa
0  1e-07 13 0
2  13
0101000
+183 0 *
Ve
1e-07
106.7 8 -3
0 0

0101101
*
Ed
 1e-07 1 1 0
1  28 0 0 27
6  54 14 0
6  55 15 0
0

0101000
+181 0 -181 1 *
Ed
 1e-07 1 1 0
1  29 0 0 1.0735455276792
6  56 14 0
6  57 14 2
0

0101000
+186 0 -181 0 *
Wi

0101100
+185 0 -180 0 -179 0 +179 1 *
Fa
0  1e-07 14 0
2  14
0101000
+178 0 *
Ve
1e-07
106.7 7 -3
0 0

0101101
*
Ed
 1e-07 1 1 0
1  30 0 0 27
6  58 15 0
6  59 16 0
0

0101000
+176 0 -176 1 *
Ed
 1e-07 1 1 0
1  31 0 0 1
6  60 15 0
6  61 15 2
0

0101000
+181 0 -176 0 *
Wi

0101100
+180 0 -175 0 -174 0 +174 1 *
Fa
0  1e-07 15 0
2  15
0101000
+173 0 *
Ve
1e-07
105.75 6.5 -3
0 0

0101101
*
Ed
 1e-07 1 1 0
1  32 0 0 27
6  62 16 0
6  63 17 0
0

0101000
+171 0 -171 1 *
Ed
 1e-07 1 1 0
1  33 0 0 1.0735455276792
6  64 16 0
6  65 16 2
0

0101000
+176 0 -171 0 *
Wi

0101100
+175 0 -170 0 -169 0 +169 1 *
Fa
0  1e-07 16 0
2  16
0101000
+168 0 *
Ve
1e-07
105.75 5.5 -3
0 0

0101101
*
Ed
 1e-07 1 1 0
1  34 0 0 27
6  66 17 0
6  67 18 0
0

0101000
+166 0 -166 1 *
Ed
 1e-07 1 1 0
1  35 0 0 1
6  68 17 0
6  69 17 2
0

0101000
+171 0 -166 0 *
Wi

0101100
+170 0 -165 0 -164 0 +164 1 *
Fa
0  1e-07 17 0
2  17
0101000
+163 0 *
Ve
1e-07
106.7 5 -3
0 0

0101101
*
Ed
 1e-07 1 1 0
1  36 0 0 27
6  70 18 0
6  71 19 0
0

0101000
+161 0 -161 1 *
Ed
 1e-07 1 1 0
1  37 0 0 1.0735455276792
6  72 18 0
6  73 18 2
0

0101000
+166 0 -161 0 *
Wi

0101100
+165 0 -160 0 -159 0 +159 1 *
Fa
0  1e-07 18 0
2  18
0101000
+158 0 *
Ve
1e-07
106.7 4 -3
0 0

0101101
*
Ed
 1e-07 1 1 0
1  38 0 0 27
6  74 19 0
6  75 20 0
0

0101000
+156 0 -156 1 *
Ed
 1e-07 1 1 0
1  39 0 0 1
6  76 19 0
6  77 19 2
0

0101000
+161 0 -156 0 *
Wi

0101100
+160 0 -155 0 -154 0 +154 1 *
Fa
0  1e-07 19 0
2  19
0101000
+153 0 *
Ve
1e-07
105.75 3.5 -3
0 0

0101101
*
Ed
 1e-07 1 1 0
1  40 0 0 27
6  78 20 0
6  79 21 0
0

0101000
+151 0 -151 1 *
Ed
 1e-07 1 1 0
1  41 0 0 1.0735455276792
6  80 20 0
6  81 20 2
0

0101000
+156 0 -151 0 *
Wi

0101100
+155 0 -150 0 -149 0 +149 1 *
Fa
0  1e-07 20 0
2  20
0101000
+148 0 *
Ve
1e-07
105.75 2.5 -3
0 0

0101101
*
Ed
 1e-07 1 1 0
1  42 0 0 27
6  82 21 0
6  83 22 0
0

0101000
+146 0 -146 1 *
Ed
 1e-07 1 1 0
1  43 0 0 1
6  84 21 0
6  85 21 2
0

0101000
+151 0 -146 0 *
Wi

0101100
+150 0 -145 0 -144 0 +144 1 *
Fa
0  1e-07 21 0
2  21
0101000
+143 0 *
Ve
1e-07
106.7 2 -3
0 0

0101101
*
Ed
 1e-07 1 1 0
1  44 0 0 27
6  86 22 0
6  87 23 0
0

0101000
+141 0 -141 1 *
Ed
 1e-07 1 1 0
1  45 0 0 1.0735455276792
6  88 22 0
6  89 22 2
0

0101000
+146 0 -141 0 *
Wi

0101100
+145 0 -140 0 -139 0 +139 1 *
Fa
0  1e-07 22 0
2  22
0101000
+138 0 *
Ve
1e-07
106.7 1 -3
0 0

0101101
*
Ed
 1e-07 1 1 0
1  46 0 0 27
6  90 23 0
6  91 24 0
0

0101000
+136 0 -136 1 *
Ed
 1e-07 1 1 0
1  47 0 0 1
6  92 23 0
6  93 23 2
0

0101000
+141 0 -136 0 *
Wi

0101100
+140 0 -135 0 -134 0 +134 1 *
Fa
0  1e-07 23 0
2  23
0101000
+133 0 *
Ve
1e-07
105.75 0.5 -3
0 0

0101101
*
Ed
 1e-07 1 1 0
1  48 0 0 27
6  94 24 0
6  95 25 0
0

0101000
+131 0 -131 1 *
Ed
 1e-07 1 1 0
1  49 0 0 1.0735455276792
6  96 24 0
6  97 24 2
0

0101000
+136 0 -131 0 *
Wi

0101100
+135 0 -130 0 -129 0 +129 1 *
Fa
0  1e-07 24 0
2  24
0101000
+128 0 *
Ve
1e-07
105.75 -0.5 -3
0 0

0101101
*
Ed
 1e-07 1 1 0
1  50 0 0 27
6  98 25 0
6  99 26 0
0

0101000
+126 0 -126 1 *
Ed
 1e-07 1 1 0
1  51 0 0 1
6  100 25 0
6  101 25 2
0

0101000
+131 0 -126 0 *
Wi

0101100
+130 0 -125 0 -124 0 +124 1 *
Fa
0  1e-07 25 0
2  25
0101000
+123 0 *
Ve
1e-07
106.7 -1 -3
0 0

0101101
*
Ed
 1e-07 1 1 0
1  52 0 0 27
6  102 26 0
6  103 27 0
0

0101000
+121 0 -121 1 *
Ed
 1e-07 1 1 0
1  53 0 0 1.0735455276792
6  104 26 0
6  105 26 2
0

0101000
+126 0 -121 0 *
Wi

0101100
+125 0 -120 0 -119 0 +119 1 *
Fa
0  1e-07 26 0
2  26
0101000
+118 0 *
Ve
1e-07
106.7 -2 -3
0 0

0101101
*
Ed
 1e-07 1 1 0
1  54 0 0 27
6  106 27 0
6  107 28 0
0

0101000
+116 0 -116 1 *
Ed
 1e-07 1 1 0
1  55 0 0 1
6  108 27 0
6  109 27 2
0

0101000
+121 0 -116 0 *
Wi

0101100
+120 0 -115 0 -114 0 +114 1 *
Fa
0  1e-07 27 0
2  27
0101000
+113 0 *
Ve
1e-07
105.75 -2.5 -3
0 0

0101101
*
Ed
 1e-07 1 1 0
1  56 0 0 27
6  110 28 0
6  111 29 0
0

0101000
+111 0 -111 1 *
Ed
 1e-07 1 1 0
1  57 0 0 1.0735455276792
6  112 28 0
6  113 28 2
0

0101000
+116 0 -111 0 *
Wi

0101100
+115 0 -110 0 -109 0 +109 1 *
Fa
0  1e-07 28 0
2  28
0101000
+108 0 *
Ve
1e-07
105.75 -3.5 -3
0 0

0101101
*
Ed
 1e-07 1 1 0
1  58 0 0 27
6  114 29 0
6  115 30 0
0

0101000
+106 0 -106 1 *
Ed
 1e-07 1 1 0
1  59 0 0 1
6  116 29 0
6  117 29 2
0

0101000
+111 0 -106 0 *
Wi

0101100
+110 0 -105 0 -104 0 +104 1 *
Fa
0  1e-07 29 0
2  29
0101000
+103 0 *
Ve
1e-07
106.7 -4 -3
0 0

0101101
*
Ed
 1e-07 1 1 0
1  60 0 0 27
6  118 30 0
6  119 31 0
0

0101000
+101 0 -101 1 *
Ed
 1e-07 1 1 0
1  61 0 0 1.0735455276792
6  120 30 0
6  121 30 2
0

0101000
+106 0 -101 0 *
Wi

0101100
+105 0 -100 0 -99 0 +99 1 *
Fa
0  1e-07 30 0
2  30
0101000
+98 0 *
Ve
1e-07
106.7 -5 -3
0 0

0101101
*
Ed
 1e-07 1 1 0
1  62 0 0 27
6  122 31 0
6  123 32 0
0

0101000
+96 0 -96 1 *
Ed
 1e-07 1 1 0
1  63 0 0 1
6  124 31 0
6  125 31 2
0

0101000
+101 0 -96 0 *
Wi

0101100
+100 0 -95 0 -94 0 +94 1 *
Fa
0  1e-07 31 0
2  31
0101000
+93 0 *
Ve
1e-07
105.75 -5.5 -3
0 0

0101101
*
Ed
 1e-07 1 1 0
1  64 0 0 27
6  126 32 0
6  127 33 0
0

0101000
+91 0 -91 1 *
Ed
 1e-07 1 1 0
1  65 0 0 1.0735455276792
6  128 32 0
6  129 32 2
0

0101000
+96 0 -91 0 *
Wi

0101100
+95 0 -90 0 -89 0 +89 1 *
Fa
0  1e-07 32 0
2  32
0101000
+88 0 *
Ve
1e-07
105.75 -6.5 -3
0 0

0101101
*
Ed
 1e-07 1 1 0
1  66 0 0 27
6  130 33 0
6  131 34 0
0

0101000
+86 0 -86 1 *
Ed
 1e-07 1 1 0
1  67 0 0 1
6  132 33 0
6  133 33 2
0

0101000
+91 0 -86 0 *
Wi

0101100
+90 0 -85 0 -84 0 +84 1 *
Fa
0  1e-07 33 0
2  33
0101000
+83 0 *
Ve
1e-07
106.7 -7 -3
0 0

0101101
*
Ed
 1e-07 1 1 0
1  68 0 0 27
6  134 34 0
6  135 35 0
0

0101000
+81 0 -81 1 *
Ed
 1e-07 1 1 0
1  69 0 0 1.0735455276792
6  136 34 0
6  137 34 2
0

0101000
+86 0 -81 0 *
Wi

0101100
+85 0 -80 0 -79 0 +79 1 *
Fa
0  1e-07 34 0
2  34
0101000
+78 0 *
Ve
1e-07
106.7 -8 -3
0 0

0101101
*
Ed
 1e-07 1 1 0
1  70 0 0 27
6  138 35 0
6  139 36 0
0

0101000
+76 0 -76 1 *
Ed
 1e-07 1 1 0
1  71 0 0 1
6  140 35 0
6  141 35 2
0

0101000
+81 0 -76 0 *
Wi

0101100
+80 0 -75 0 -74 0 +74 1 *
Fa
0  1e-07 35 0
2  35
0101000
+73 0 *
Ve
1e-07
105.75 -8.5 -3
0 0

0101101
*
Ed
 1e-07 1 1 0
1  72 0 0 27
6  142 36 0
6  143 37 0
0

0101000
+71 0 -71 1 *
Ed
 1e-07 1 1 0
1  73 0 0 1.0735455276792
6  144 36 0
6  145 36 2
0

0101000
+76 0 -71 0 *
Wi

0101100
+75 0 -70 0 -69 0 +69 1 *
Fa
0  1e-07 36 0
2  36
0101000
+68 0 *
Ve
1e-07
105.75 -9.5 -3
0 0

0101101
*
Ed
 1e-07 1 1 0
1  74 0 0 27
6  146 37 0
6  147 38 0
0

0101000
+66 0 -66 1 *
Ed
 1e-07 1 1 0
1  75 0 0 1
6  148 37 0
6  149 37 2
0

0101000
+71 0 -66 0 *
Wi

0101100
+70 0 -65 0 -64 0 +64 1 *
Fa
0  1e-07 37 0
2  37
0101000
+63 0 *
Ve
1e-07
106.7 -10 -3
0 0

0101101
*
Ed
 1e-07 1 1 0
1  76 0 0 27
6  150 38 0
6  151 39 0
0

0101000
+61 0 -61 1 *
Ed
 1e-07 1 1 0
1  77 0 0 1.0735455276792
6  152 38 0
6  153 38 2
0

0101000
+66 0 -61 0 *
Wi

0101100
+65 0 -60 0 -59 0 +59 1 *
Fa
0  1e-07 38 0
2  38
0101000
+58 0 *
Ve
1e-07
106.7 -11 -3
0 0

0101101
*
Ed
 1e-07 1 1 0
1  78 0 0 27
6  154 39 0
6  155 40 0
0

0101000
+56 0 -56 1 *
Ed
 1e-07 1 1 0
1  79 0 0 1
6  156 39 0
6  157 39 2
0

0101000
+61 0 -56 0 *
Wi

0101100
+60 0 -55 0 -54 0 +54 1 *
Fa
0  1e-07 39 0
2  39
0101000
+53 0 *
Ve
1e-07
105.75 -11.5 -3
0 0

0101101
*
Ed
 1e-07 1 1 0
1  80 0 0 27
6  158 40 0
6  159 41 0
0

0101000
+51 0 -51 1 *
Ed
 1e-07 1 1 0
1  81 0 0 1.0735455276792
6  160 40 0
6  161 40 2
0

0101000
+56 0 -51 0 *
Wi

0101100
+55 0 -50 0 -49 0 +49 1 *
Fa
0  1e-07 40 0
2  40
0101000
+48 0 *
Ve
1e-07
105.75 -12.5 -3
0 0

0101101
*
Ed
 1e-07 1 1 0
1  82 0 0 27
6  162 41 0
6  163 42 0
0

0101000
+46 0 -46 1 *
Ed
 1e-07 1 1 0
1  83 0 0 1
6  164 41 0
6  165 41 2
0

0101000
+51 0 -46 0 *
Wi

0101100
+50 0 -45 0 -44 0 +44 1 *
Fa
0  1e-07 41 0
2  41
0101000
+43 0 *
Ve
1e-07
106.7 -13 -3
0 0

0101101
*
Ed
 1e-07 1 1 0
1  84 0 0 27
6  166 42 0
6  167 43 0
0

0101000
+41 0 -41 1 *
Ed
 1e-07 1 1 0
1  85 0 0 1.0735455276792
6  168 42 0
6  169 42 2
0

0101000
+46 0 -41 0 *
Wi

0101100
+45 0 -40 0 -39 0 +39 1 *
Fa
0  1e-07 42 0
2  42
0101000
+38 0 *
Ve
1e-07
106.7 -14 -3
0 0

0101101
*
Ed
 1e-07 1 1 0
1  86 0 0 27
6  170 43 0
6  171 44 0
0

0101000
+36 0 -36 1 *
Ed
 1e-07 1 1 0
1  87 0 0 1
6  172 43 0
6  173 43 2
0

0101000
+41 0 -36 0 *
Wi

0101100
+40 0 -35 0 -34 0 +34 1 *
Fa
0  1e-07 43 0
2  43
0101000
+33 0 *
Ve
1e-07
105.75 -14.5 -3
0 0

0101101
*
Ed
 1e-07 1 1 0
1  88 0 0 27
6  174 44 0
6  175 45 0
0

0101000
+31 0 -31 1 *
Ed
 1e-07 1 1 0
1  89 0 0 1.0735455276792
6  176 44 0
6  177 44 2
0

0101000
+36 0 -31 0 *
Wi

0101100
+35 0 -30 0 -29 0 +29 1 *
Fa
0  1e-07 44 0
2  44
0101000
+28 0 *
Ve
1e-07
105.75 -15.5 -3
0 0

0101101
*
Ed
 1e-07 1 1 0
1  90 0 0 27
6  178 45 0
6  179 46 0
0

0101000
+26 0 -26 1 *
Ed
 1e-07 1 1 0
1  91 0 0 1
6  180 45 0
6  181 45 2
0

0101000
+31 0 -26 0 *
Wi

0101100
+30 0 -25 0 -24 0 +24 1 *
Fa
0  1e-07 45 0
2  45
0101000
+23 0 *
Ve
1e-07
106.7 -16 -3
0 0

0101101
*
Ed
 1e-07 1 1 0
1  92 0 0 27
6  182 46 0
6  183 47 0
0

0101000
+21 0 -21 1 *
Ed
 1e-07 1 1 0
1  93 0 0 1.0735455276792
6  184 46 0
6  185 46 2
0

0101000
+26 0 -21 0 *
Wi

0101100
+25 0 -20 0 -19 0 +19 1 *
Fa
0  1e-07 46 0
2  46
0101000
+18 0 *
Ve
1e-07
106.7 -17 -3
0 0

0101101
*
Ed
 1e-07 1 1 0
1  94 0 0 27
6  186 47 0
6  187 48 0
0

0101000
+16 0 -16 1 *
Ed
 1e-07 1 1 0
1  95 0 0 1
6  188 47 0
6  189 47 2
0

0101000
+21 0 -16 0 *
Wi

0101100
+20 0 -15 0 -14 0 +14 1 *
Fa
0  1e-07 47 0
2  47
0101000
+13 0 *
Ve
1e-07
105.75 -17.5 -3
0 0

0101101
*
Ed
 1e-07 1 1 0
1  96 0 0 27
6  190 48 0
6  191 49 0
0

0101000
+11 0 -11 1 *
Ed
 1e-07 1 1 0
1  97 0 0 1.0735455276792
6  192 48 0
6  193 48 2
0

0101000
+16 0 -11 0 *
Wi

0101100
+15 0 -10 0 -9 0 +9 1 *
Fa
0  1e-07 48 0
2  48
0101000
+8 0 *
Ve
1e-07
105.75 -28.1554 -3
0 0

0101101
*
Ed
 1e-07 1 1 0
1  98 0 0 27
6  194 49 0
0

0101000
+6 0 -6 1 *
Ed
 1e-07 1 1 0
1  99 0 0 10.6554
6  195 49 0
6  196 49 2
0

0101000
+11 0 -6 0 *
Wi

0101100
+10 0 -5 0 -4 0 +4 1 *
Fa
0  1e-07 49 0
2  49
0101000
+3 0 *
Sh

1101000
+242 0 +237 0 +232 0 +227 0 +222 0 +217 0 +212 0 +207 0 +202 0 +197 0 
+192 0 +187 0 +182 0 +177 0 +172 0 +167 0 +162 0 +157 0 +152 0 +147 0 
+142 0 +137 0 +132 0 +127 0 +122 0 +117 0 +112 0 +107 0 +102 0 +97 0 
+92 0 +87 0 +82 0 +77 0 +72 0 +67 0 +62 0 +57 0 +52 0 +47 0 
+42 0 +37 0 +32 0 +27 0 +22 0 +17 0 +12 0 +7 0 +2 0 *

+1 0 