DBRep_DrawableShape

CASCADE Topology V3, (c) Open Cascade
Locations 0
Curve2ds 0
Curves 1
7 0 0  3 49 17  106.7 -5 19  106.7 -5 14.5167  106.7 -5 10.033300000000001  106.7 -5 5.5499999999999998  106.7 -4.6666999999999996 5.5499999999999998  106.7 -4.3333000000000004 5.5499999999999998  106.7 -4 5.5499999999999998  106.38330000000001 -3.8332999999999999 5.5499999999999998  106.0667 -3.6667000000000001 5.5499999999999998  105.75 -3.5 5.5499999999999998  105.75 -3.1667000000000001 5.5499999999999998  105.75 -2.8332999999999999 5.5499999999999998  105.75 -2.5 5.5499999999999998  106.0667 -2.3332999999999999 5.5499999999999998  106.38330000000001 -2.1667000000000001 5.5499999999999998  106.7 -2 5.5499999999999998  106.7 -1.6667000000000001 5.5499999999999998  106.7 -1.3332999999999999 5.5499999999999998  106.7 -1 5.5499999999999998  106.38330000000001 -0.83330000000000004 5.5499999999999998  106.0667 -0.66669999999999996 5.5499999999999998  105.75 -0.5 5.5499999999999998  105.75 -0.33329999999999999 5.5499999999999998  105.75 -0.16669999999999999 5.5499999999999998  105.75 0 5.5499999999999998  105.75 0 10.033300000000001  105.75 0 14.5167  105.75 0 19  105.75 -0.16669999999999999 19  105.75 -0.33329999999999999 19  105.75 -0.5 19  106.0667 -0.66669999999999996 19  106.38330000000001 -0.83330000000000004 19  106.7 -1 19  106.7 -1.3332999999999999 19  106.7 -1.6667000000000001 19  106.7 -2 19  106.38330000000001 -2.1667000000000001 19  106.0667 -2.3332999999999999 19  105.75 -2.5 19  105.75 -2.8332999999999999 19  105.75 -3.1667000000000001 19  105.75 -3.5 19  106.0667 -3.6667000000000001 19  106.38330000000001 -3.8332999999999999 19  106.7 -4 19  106.7 -4.3333000000000004 19  106.7 -4.6666999999999996 19  106.7 -5 19 
 0 4 1 3 2 3 3 3 4 3 5 3 6 3 7 3 8 3 9 3 10 3 11 3 12 3 13 3 14 3 15 3 16 4
Polygon3D 1
62 1
0.0538000008
106.7 -5 19 106.7 -5 7.04443676268862 106.7 -5 5.55709411708581 106.7 -4.99886799422645 5.55 106.7 -4.97777985404664 5.55 106.7 -4.08888222990398 5.55 106.699786271933 -3.99988750089526 5.55 105.755278324108 -3.50277832410837 5.55 105.75 -3.49757345671305 5.55 105.75 -2.75554625459534 5.55 105.75 -2.61492272158549 5.55 105.750608869075 -2.4996795122943 5.55 106.342177367553 -2.18833044494662 5.55 106.567613962333 -2.06968095954154 5.55 106.652158107395 -2.0251819804957 5.55 106.683863217987 -2.0084938071596 5.55 106.7 -1.99963946883773 5.55 106.7 -1.77922582252248 5.55 106.7 -1.02836675249697 5.55 106.699867590014 -0.999930303934877 5.55 106.218387401161 -0.746519849655224 5.55 105.857284394904 -0.556469144328261 5.55 105.789572096761 -0.520829152609843 5.55 105.764179287986 -0.507463458744119 5.55 105.754656878727 -0.502451217575479 5.55 105.75 -0.498447453984024 5.55 105.75 -0.0664762809992039 5.55 105.75 -0.00190466867575267 5.55 105.75 0 5.60938521915255 105.75 0 9.39217659361256 105.75 0 15.5341978946429 105.75 -0.000341769376595677 19 105.75 -0.0252846436513255 19 105.75 -0.282145334015326 19 105.75 -0.474795317382211 19 105.75 -0.495171785275707 19 105.758140152467 -0.504284686239137 19 106.045287201692 -0.655418155834408 19 106.457061578415 -0.872133268201631 19 106.611485920396 -0.953410386048364 19 106.669398097445 -0.98389235404741 19 106.691115686977 -0.995323615185963 19 106.7 -1.00222094722924 19 106.7 -1.97942429775289 19 106.7 -1.99864093417272 19 106.206584102797 -2.25969211901951 19 105.835558773889 -2.45496588388582 19 105.765985326397 -2.49158591312085 19 105.754898694744 -2.49742149914233 19 105.75 -2.50067844101944 19 105.75 -2.50651236524839 19 105.75 -3.32075050849291 19 105.75 -3.4846750352356 19 105.75 -3.49538926511876 19 105.755799445229 -3.5030526234603 19 106.284080270863 -3.78109342919975 19 106.680294750464 -3.9896278938805 19 106.69157862894 -3.99556729068152 19 106.7 -4.00202104375865 19 106.7 -4.01290494099985 19 106.7 -4.49556793204565 19 106.7 -5 19 
0 0.888888888888889 0.999472552435157 1.00113211860119 1.02222222222222 1.91111111111111 2.00022495324919 2.99444444444444 3.00242678420145 3.74444444444444 3.88506944444444 4.0006408474882 4.62335069444444 4.86065538194444 4.94964463975694 4.98301561143663 5.00036056718 5.22078378465441 5.97163064744737 6.00013936426904 6.5069609966543 6.88707722094324 6.95834901299741 6.98507593501773 6.99509853077535 7.00310447690727 7.86706436168816 7.99619141568427 8.00441529032345 8.28566433762745 8.74231885683395 9.00068340235282 9.05056065729833 9.56429699140564 9.94959924198612 9.99034544589595 10.0085677027295 10.3108201019053 10.7442851338084 10.906834520772 10.9677905408834 10.9906490484251 11.0022211678681 11.9794223652785 11.9986407988063 12.5193861737421 12.9099452049439 12.9831750232943 12.9948440135863 13.0006785087323 13.0065130038783 13.8207410706763 13.9846735723426 13.9953888103591 14.0061040483756 14.5621929814735 14.9792596812969 14.9911363072411 15.0020212446591 15.0129061820772 15.4955681536206 16 
PolygonOnTriangulations 0
Surfaces 0
Triangulations 0

TShapes 2
Ve
1e-07
106.7 -5 19
0 0

0101101
*
Ed
 1e-07 1 1 0
1  1 0 0 16
5  1 0
0

1101000
+2 0 -2 0 *

+1 0 