DBRep_DrawableShape

CASCADE Topology V3, (c) Open Cascade
Locations 0
Curve2ds 0
Curves 1
7 0 0  3 40 14  105.75 -15 5.5499999999999998  105.75 -15 9.3542000000000005  105.75 -15 13.158300000000001  105.75 -15 16.962499999999999  105.75 -15.166700000000001 16.864599999999999  105.75 -15.333299999999999 16.7667  105.75 -15.5 16.668800000000001  106.0667 -15.666700000000001 16.570799999999998  106.38330000000001 -15.833299999999999 16.472899999999999  106.7 -16 16.375  106.7 -16.333300000000001 16.179200000000002  106.7 -16.666699999999999 15.9833  106.7 -17 15.7875  106.38330000000001 -17.166699999999999 15.6896  106.0667 -17.333300000000001 15.591699999999999  105.75 -17.5 15.4938  105.75 -17.666699999999999 15.395799999999999  105.75 -17.833300000000001 15.2979  105.75 -18 15.199999999999999  105.75 -18 12.800000000000001  105.75 -18 10.4  105.75 -18 8  105.75 -17.833300000000001 7.8276000000000003  105.75 -17.666699999999999 7.6551999999999998  105.75 -17.5 7.4828000000000001  106.0667 -17.333300000000001 7.3102999999999998  106.38330000000001 -17.166699999999999 7.1379000000000001  106.7 -17 6.9654999999999996  106.7 -16.666699999999999 6.6207000000000003  106.7 -16.333300000000001 6.2759  106.7 -16 5.931  106.4667 -15.8772 5.8040000000000003  106.2334 -15.7544 5.6769999999999996  106.00020000000001 -15.6317 5.5499999999999998  105.91679999999999 -15.5878 5.5499999999999998  105.8334 -15.543900000000001 5.5499999999999998  105.75 -15.5 5.5499999999999998  105.75 -15.333299999999999 5.5499999999999998  105.75 -15.166700000000001 5.5499999999999998  105.75 -15 5.5499999999999998 
 0 4 1 3 2 3 3 3 4 3 5 3 6 3 7 3 8 3 9 3 10 3 11 3 12 3 13 4
Polygon3D 1
48 1
0.0456500008
105.75 -15 5.55 105.75 -15 16.9516555523628 105.75 -15.0001984718967 16.9623834408919 105.75 -15.0416730324074 16.938025 105.75 -15.4027682055898 16.7259083333333 105.75 -15.4704812124831 16.6861364583333 105.750473604212 -15.5002492889518 16.6686534474376 106.321067199035 -15.800559386535 16.4921549136943 106.538152574327 -15.9148127305766 16.425034023038 106.699332643281 -15.9996487264197 16.3752062969286 106.7 -16.0047878360254 16.3721873410245 106.7 -16.5151917310697 16.0723245449719 106.7 -16.9008182519416 15.8457663224399 106.7 -16.9731173369396 15.8032925433806 106.7 -16.9967048684748 15.7894357551744 106.698597785984 -17.0007380769769 15.7870665398923 105.927045611351 -17.4068135938948 15.5485321079572 105.75587905408 -17.4969054733209 15.4956173682172 105.75 -17.5011594524663 15.493118378939 105.75 -17.772858683915 15.333430852318 105.75 -17.998109160311 15.2011104596596 105.75 -18 15.1786188041204 105.75 -18 11.0585359334946 105.75 -18 8.05928005795939 105.75 -18 8.00581340619028 105.75 -17.9943339205225 7.99414013982622 105.75 -17.9807615901351 7.98010332069496 105.75 -17.5336556860669 7.51760782259072 105.75 -17.5126940982442 7.49592834611708 105.75 -17.5059699540925 7.488974129558 105.75 -17.5026078424919 7.48549702127845 105.751433024569 -17.4992457054203 7.48201946119439 105.761793589185 -17.493792281526 7.47637629471646 106.522299307282 -17.0935311886774 7.06223947101945 106.621855411697 -17.0411317181227 7.00804018110457 106.696526027146 -17.0018285780693 6.96739110707708 106.7 -16.9995960679683 6.96508213097016 106.7 -16.9955360628622 6.96088204778704 106.7 -16.9874160233189 6.95248188124816 106.7 -16.0605187578576 5.99362285319055 106.7 -16.0008410570047 5.93187032828394 106.004345108851 -15.6338809863528 5.55225740775829 105.996571208166 -15.6297898805573 5.55 105.985142183135 -15.6237738829692 5.55 105.786040980395 -15.518971211503 5.55 105.750437303383 -15.5002301872726 5.55 105.75 -15.286008644167 5.55 105.75 -15 5.55 
0 0.999049782879637 1.00039686451499 1.08333333333333 1.80555555555556 1.94097222222222 2.00049847835693 2.60112847222222 2.82964409722222 2.99929759302489 3.00478830799975 3.51519097222222 3.90081108940972 3.97311486138238 3.99670454217991 4.00147586008739 4.81364621056451 4.9938121613307 5.0023184444638 5.54572190178765 5.99621906825274 6.00296961053883 6.5752033425702 6.99176665861675 6.99919258247357 7.01132996940019 7.03846999092234 7.93269949228399 7.97461650016032 7.98806239451277 7.99478534168899 8.00150828886522 8.01241304602393 8.81295665768687 8.91774917737768 8.9963435671458 9.00040397237997 9.00446437761413 9.01258518808247 9.93947624436316 9.99915885909332 10.9940750452538 11.0145035644852 11.0601831209629 11.855951317365 11.9982521847184 12.4279756586825 13 
PolygonOnTriangulations 0
Surfaces 0
Triangulations 0

TShapes 2
Ve
1e-07
105.75 -15 5.55
0 0

0101101
*
Ed
 1e-07 1 1 0
1  1 0 0 13
5  1 0
0

1101000
+2 0 -2 0 *

+1 0 