DBRep_DrawableShape

CASCADE Topology V3, (c) Open Cascade
Locations 0
Curve2ds 0
Curves 13
1 34857.281640000001 7425 0 0 -1 0 
1 34857.281640000001 7075 0 0.70710678118654746 -0.70710678118654746 0 
1 34872.281640000001 7060 0 1 0 0 
1 34893.767350000002 7060 0 0.70710686928406441 0.70710669308901963 0 
2 35146.031419999999 6888 0 0 0 1 1 0 -0 -0 1 0 300
1 35146.031419999999 7188 0 1 0 0 
2 35280.819309999999 6888 0 0 0 1 1 0 -0 -0 1 0 300
1 35540.626929999999 7038 0 0.50000003135274806 -0.86602538568292042 0 
1 35577 6975 0 1 0 0 
1 35592 6975 0 0 1 0 
2 35592 7475 0 0 0 1 1 0 -0 -0 1 0 50
1 35542 7475 0 -1 0 0 
2 34857.281640000001 7475 0 0 0 1 1 0 -0 -0 1 0 50
Polygon3D 0
PolygonOnTriangulations 0
Surfaces 0
Triangulations 0

TShapes 40
Ve
1e-07
34857.28164 7425 0
0 0

0101101
*
Ve
1e-07
34857.28164 7075 0
0 0

0101101
*
Ed
 1e-07 1 1 0
1  1 0 0 350
0

0101000
+40 0 -39 0 *
Ve
1e-07
34857.28164 7075 0
0 0

0101101
*
Ve
1e-07
34872.28164 7060 0
0 0

0101101
*
Ed
 1e-07 1 1 0
1  2 0 0 21.2132034355964
0

0101000
+37 0 -36 0 *
Ve
1e-07
34872.28164 7060 0
0 0

0101101
*
Ve
1e-07
34893.76735 7060 0
0 0

0101101
*
Ed
 1e-07 1 1 0
1  3 0 0 21.4857100000008
0

0101000
+34 0 -33 0 *
Ve
1e-07
34893.76735 7060 0
0 0

0101101
*
Ve
1e-07
34933.89939 7100.13203 0
0 0

0101101
*
Ed
 1e-07 1 1 0
1  4 0 0 56.7552681826297
0

0101000
+31 0 -30 0 *
Ve
1e-07
35146.03142 7188 0
0 0

0101101
*
Ve
1e-07
34933.899385644 7100.13203435596 0
0 0

0101101
*
Ed
 1e-07 1 1 0
1  5 0 1.5707963267949 2.35619449019235
0

0101000
+28 0 -27 0 *
Ve
1e-07
35146.03142 7188 0
0 0

0101101
*
Ve
1e-07
35280.81931 7188 0
0 0

0101101
*
Ed
 1e-07 1 1 0
1  6 0 0 134.78789
0

0101000
+25 0 -24 0 *
Ve
1e-07
35540.6269308515 7038.00000049161 0
0 0

0101101
*
Ve
1e-07
35280.81931 7188 0
0 0

0101101
*
Ed
 1e-07 1 1 0
1  7 0 0.523598777490519 1.5707963267949
0

0101000
+22 0 -21 0 *
Ve
1e-07
35540.62693 7038 0
0 0

0101101
*
Ve
1e-07
35577 6975 0
0 0

0101101
*
Ed
 1e-07 1 1 0
1  8 0 0 72.7461354384204
0

0101000
+19 0 -18 0 *
Ve
1e-07
35577 6975 0
0 0

0101101
*
Ve
1e-07
35592 6975 0
0 0

0101101
*
Ed
 1e-07 1 1 0
1  9 0 0 15
0

0101000
+16 0 -15 0 *
Ve
1e-07
35592 6975 0
0 0

0101101
*
Ve
1e-07
35592 7425 0
0 0

0101101
*
Ed
 1e-07 1 1 0
1  10 0 0 450
0

0101000
+13 0 -12 0 *
Ve
1e-07
35542 7475 0
0 0

0101101
*
Ve
1e-07
35592 7425 0
0 0

0101101
*
Ed
 1e-07 1 1 0
1  11 0 3.14159265358979 4.71238898038469
0

0101000
+10 0 -9 0 *
Ve
1e-07
35542 7475 0
0 0

0101101
*
Ve
1e-07
34907.28164 7475 0
0 0

0101101
*
Ed
 1e-07 1 1 0
1  12 0 0 634.718359999999
0

0101000
+7 0 -6 0 *
Ve
1e-07
34857.28164 7425 0
0 0

0101101
*
Ve
1e-07
34907.28164 7475 0
0 0

0101101
*
Ed
 1e-07 1 1 0
1  13 0 4.71238898038469 6.28318530717959
0

0101000
+4 0 -3 0 *
Co

1100000
+38 0 +35 0 +32 0 +29 0 +26 0 +23 0 +20 0 +17 0 +14 0 +11 0 
+8 0 +5 0 +2 0 *

+1 0 