 PTC IGES file: prt0004.igs                                             S      1
1H,,1H;,7HPRT0004,11Hprt0004.igs,27HCreo Parametric by PTC Inc.,        G      1
7H2019010,32,38,7,38,15,7HPRT0004,1.,2,2HMM,32768,0.5,                  G      2
15H20240929.172208,0.0716968,716.996,13HAdministrator,7HUnknown,10,0,   G      3
15H20240929.172208;                                                     G      4
     314       1       1       1       0       0       0       001000200D      1
     314       0       4       1       0                   COLOR       1D      2
     314       2       1       1       0       0       0       001000200D      3
     314       0       1       1       0                   COLOR       2D      4
     314       3       1       1       0       0       0       001000200D      5
     314       0       2       1       0                   COLOR       3D      6
     314       4       1       1       0       0       0       001000200D      7
     314       0       8       1       0                   COLOR       4D      8
     314       5       1       1       0       0       0       001000200D      9
     314       0       8       1       0                   COLOR       5D     10
     314       6       1       1       0       0       0       001000200D     11
     314       0       8       1       0                   COLOR       6D     12
     314       7       1       1       0       0       0       001000200D     13
     314       0       5       1       0                   COLOR       7D     14
     314       8       1       1       0       0       0       001000200D     15
     314       0       8       1       0                   COLOR       8D     16
     314       9       1       1       0       0       0       001000200D     17
     314       0       8       1       0                   COLOR       9D     18
     126      10       1       1       0       0       0       000000000D     19
     126       0       4      58       0                B_SPLINE       1D     20
     126      68       1       1       0       0       0       000000000D     21
     126       0       4      58       0                B_SPLINE       2D     22
     126     126       1       1       0       0       0       000000000D     23
     126       0       4      58       0                B_SPLINE       3D     24
     126     184       1       1       0       0       0       000000000D     25
     126       0       4      58       0                B_SPLINE       4D     26
     126     242       1       1       0       0       0       000000000D     27
     126       0       4      58       0                B_SPLINE       5D     28
     126     300       1       1       0       0       0       000000000D     29
     126       0       4      58       0                B_SPLINE       6D     30
     126     358       1       1       0       0       0       000000000D     31
     126       0       4      58       0                B_SPLINE       7D     32
     126     416       1       1       0       0       0       000000000D     33
     126       0       4      58       0                B_SPLINE       8D     34
     126     474       1       1       0       0       0       000000000D     35
     126       0       4      58       0                B_SPLINE       9D     36
     126     532       1       1       0       0       0       000000000D     37
     126       0       4      58       0                B_SPLINE      10D     38
     126     590       1       1       0       0       0       000000000D     39
     126       0       4      58       0                B_SPLINE      11D     40
     126     648       1       1       0       0       0       000000000D     41
     126       0       4      58       0                B_SPLINE      12D     42
     126     706       1       1       0       0       0       000000000D     43
     126       0       4      58       0                B_SPLINE      13D     44
     126     764       1       1       0       0       0       000000000D     45
     126       0       4      58       0                B_SPLINE      14D     46
     126     822       1       1       0       0       0       000000000D     47
     126       0       4      58       0                B_SPLINE      15D     48
     126     880       1       1       0       0       0       000000000D     49
     126       0       4      58       0                B_SPLINE      16D     50
     126     938       1       1       0       0       0       000000000D     51
     126       0       4      58       0                B_SPLINE      17D     52
     126     996       1       1       0       0       0       000000000D     53
     126       0       4      58       0                B_SPLINE      18D     54
     124    1054       1       1       0       0       0       001000000D     55
     124       0       0       2       0                   XFORM       1D     56
     100    1056       1       1       0       0      55       000000001D     57
     100       0       4       1       0                     ARC       1D     58
     124    1057       1       1       0       0       0       001000000D     59
     124       0       0       2       0                   XFORM       2D     60
     100    1059       1       1       0       0      59       000000001D     61
     100       0       4       1       0                     ARC       2D     62
314,1.1D0,1.2D0,1D2;                                                   1P      1
314,4.1D1,2.61589D1,1.12848D1;                                         3P      2
314,5.04854D1,1.5455D0,1.5455D0;                                       5P      3
314,6.35294D1,6.86275D1,7.4902D1;                                      7P      4
314,6.40777D1,6.40777D1,6.40777D1;                                     9P      5
314,6.69062D1,6.69903D1,6.55217D1;                                    11P      6
314,9.21569D1,7.05882D1,4.70588D1;                                    13P      7
314,1D2,1D2,5.3D1;                                                    15P      8
314,1D2,1D2,9.49D1;                                                   17P      9
126,41,3,0,0,1,0,0D0,0D0,0D0,0D0,2.564157392438D-2,                   19P     10
5.128298413071D-2,7.692437778367D-2,1.025656978096D-1,                19P     11
1.282069484514D-1,1.538481339950D-1,1.794892587596D-1,                19P     12
2.051303271070D-1,2.307713434270D-1,2.564123121418D-1,                19P     13
2.820532377010D-1,3.076941245809D-1,3.333349772769D-1,                19P     14
3.589758003083D-1,3.846165982095D-1,4.102573755290D-1,                19P     15
4.358981368286D-1,4.615388866789D-1,4.871796296571D-1,                19P     16
5.128203703429D-1,5.384611133211D-1,5.641018631714D-1,                19P     17
5.897426244710D-1,6.153834017905D-1,6.410241996917D-1,                19P     18
6.666650227231D-1,6.923058754192D-1,7.179467622990D-1,                19P     19
7.435876878582D-1,7.692286565730D-1,7.948696728930D-1,                19P     20
8.205107412404D-1,8.461518660050D-1,8.717930515486D-1,                19P     21
8.974343021904D-1,9.230756222161D-1,9.487170158696D-1,                19P     22
9.743584260753D-1,1D0,1D0,1D0,1D0,1D0,1D0,1D0,1D0,1D0,1D0,1D0,        19P     23
1D0,1D0,1D0,1D0,1D0,1D0,1D0,1D0,1D0,1D0,1D0,1D0,1D0,1D0,1D0,1D0,      19P     24
1D0,1D0,1D0,1D0,1D0,1D0,1D0,1D0,1D0,1D0,1D0,1D0,1D0,1D0,1D0,1D0,      19P     25
1D0,1D0,1D0,1.180868324581D2,1.180868324581D2,4.55D1,                 19P     26
1.185812580273D2,1.185812580273D2,4.566328882720D1,                   19P     27
1.195624723356D2,1.195624723356D2,4.603822638398D1,                   19P     28
1.210032734110D2,1.210032734110D2,4.674199351535D1,                   19P     29
1.224064894196D2,1.224064894196D2,4.758432274337D1,                   19P     30
1.237654357957D2,1.237654357957D2,4.856101123688D1,                   19P     31
1.250736973973D2,1.250736973973D2,4.966749613532D1,                   19P     32
1.263250832531D2,1.263250832531D2,5.089852721223D1,                   19P     33
1.275136759446D2,1.275136759446D2,5.224828519870D1,                   19P     34
1.286338538910D2,1.286338538910D2,5.371038408100D1,                   19P     35
1.296803194487D2,1.296803194487D2,5.527790806591D1,                   19P     36
1.306481235457D2,1.306481235457D2,5.694344247772D1,                   19P     37
1.315326891860D2,1.315326891860D2,5.869910930980D1,                   19P     38
1.323298330564D2,1.323298330564D2,6.053660434962D1,                   19P     39
1.330357853083D2,1.330357853083D2,6.244723648310D1,                   19P     40
1.336472073757D2,1.336472073757D2,6.442196878248D1,                   19P     41
1.341612077569D2,1.341612077569D2,6.645146124033D1,                   19P     42
1.345753556816D2,1.345753556816D2,6.852611493224D1,                   19P     43
1.348876926009D2,1.348876926009D2,7.063611740385D1,                   19P     44
1.350967414451D2,1.350967414451D2,7.277148906649D1,                   19P     45
1.352015136050D2,1.352015136050D2,7.492213038250D1,                   19P     46
1.352015136050D2,1.352015136050D2,7.707786961750D1,                   19P     47
1.350967414451D2,1.350967414451D2,7.922851093351D1,                   19P     48
1.348876926009D2,1.348876926009D2,8.136388259615D1,                   19P     49
1.345753556816D2,1.345753556816D2,8.347388506776D1,                   19P     50
1.341612077569D2,1.341612077569D2,8.554853875967D1,                   19P     51
1.336472073757D2,1.336472073757D2,8.757803121752D1,                   19P     52
1.330357853083D2,1.330357853083D2,8.955276351690D1,                   19P     53
1.323298330564D2,1.323298330564D2,9.146339565038D1,                   19P     54
1.315326891860D2,1.315326891860D2,9.330089069020D1,                   19P     55
1.306481235457D2,1.306481235457D2,9.505655752228D1,                   19P     56
1.296803194487D2,1.296803194487D2,9.672209193410D1,                   19P     57
1.286338538910D2,1.286338538910D2,9.828961591900D1,                   19P     58
1.275136759446D2,1.275136759446D2,9.975171480130D1,                   19P     59
1.263250832531D2,1.263250832531D2,1.011014727878D2,                   19P     60
1.250736973973D2,1.250736973973D2,1.023325038647D2,                   19P     61
1.237654357957D2,1.237654357957D2,1.034389887631D2,                   19P     62
1.224064894196D2,1.224064894196D2,1.044156772566D2,                   19P     63
1.210032734110D2,1.210032734110D2,1.052580064846D2,                   19P     64
1.195624723356D2,1.195624723356D2,1.059617736160D2,                   19P     65
1.185812580273D2,1.185812580273D2,1.063367111728D2,                   19P     66
1.180868324581D2,1.180868324581D2,1.065D2,0D0,1D0,0D0,0D0,1D0;        19P     67
126,41,3,0,0,1,0,0D0,0D0,0D0,0D0,2.564190099824D-2,                   21P     68
5.128354266696D-2,7.692515760319D-2,1.025666553208D-1,                21P     69
1.282080423740D-1,1.538493254225D-1,1.794905112168D-1,                21P     70
2.051316066037D-1,2.307726185086D-1,2.564135539346D-1,                21P     71
2.820544199546D-1,3.076952237060D-1,3.333359723797D-1,                21P     72
3.589766732198D-1,3.846173335120D-1,4.102579605780D-1,                21P     73
4.358985617708D-1,4.615391444663D-1,4.871797160568D-1,                21P     74
5.128202839433D-1,5.384608555338D-1,5.641014382292D-1,                21P     75
5.897420394221D-1,6.153826664881D-1,6.410233267803D-1,                21P     76
6.666640276204D-1,6.923047762940D-1,7.179455800454D-1,                21P     77
7.435864460655D-1,7.692273814914D-1,7.948683933963D-1,                21P     78
8.205094887832D-1,8.461506745775D-1,8.717919576260D-1,                21P     79
8.974333446793D-1,9.230748423966D-1,9.487164573334D-1,                21P     80
9.743580990014D-1,1D0,1D0,1D0,1D0,1D0,1D0,1D0,1D0,1D0,1D0,1D0,        21P     81
1D0,1D0,1D0,1D0,1D0,1D0,1D0,1D0,1D0,1D0,1D0,1D0,1D0,1D0,1D0,1D0,      21P     82
1D0,1D0,1D0,1D0,1D0,1D0,1D0,1D0,1D0,1D0,1D0,1D0,1D0,1D0,1D0,1D0,      21P     83
1D0,1D0,1D0,1.548465818984D2,6.254227429812D1,4.55D1,                 21P     84
1.556624089717D2,6.287178548250D1,4.539625933723D1,                   21P     85
1.573032993410D2,6.353453834607D1,4.526528549810D1,                   21P     86
1.597704462238D2,6.453101482741D1,4.529853157603D1,                   21P     87
1.622258562225D2,6.552275080098D1,4.556198027561D1,                   21P     88
1.646508939123D2,6.650221945003D1,4.605333140379D1,                   21P     89
1.670274615044D2,6.746211110802D1,4.676898859418D1,                   21P     90
1.693377427841D2,6.839522983581D1,4.770356582692D1,                   21P     91
1.715644410597D2,6.929458952862D1,4.885006739982D1,                   21P     92
1.736908797962D2,7.015345456202D1,5.019990286377D1,                   21P     93
1.757011351818D2,7.096539333522D1,5.174296142977D1,                   21P     94
1.775801532542D2,7.172432557804D1,5.346768501492D1,                   21P     95
1.793138631383D2,7.242456808771D1,5.536115553114D1,                   21P     96
1.808892822191D2,7.306087720786D1,5.740919143540D1,                   21P     97
1.822946133554D2,7.362848809298D1,5.959645397842D1,                   21P     98
1.835193331677D2,7.412315036772D1,6.190656204583D1,                   21P     99
1.845542708041D2,7.454115994044D1,6.432221481569D1,                   21P    100
1.853916765792D2,7.487938672623D1,6.682532129219D1,                   21P    101
1.860252799758D2,7.513529807370D1,6.939713575227D1,                   21P    102
1.864503365754D2,7.530697772022D1,7.201839809020D1,                   21P    103
1.866636635668D2,7.539314013367D1,7.466947801035D1,                   21P    104
1.866636635668D2,7.539314013367D1,7.733052198965D1,                   21P    105
1.864503365754D2,7.530697772022D1,7.998160190980D1,                   21P    106
1.860252799758D2,7.513529807370D1,8.260286424773D1,                   21P    107
1.853916765792D2,7.487938672623D1,8.517467870781D1,                   21P    108
1.845542708041D2,7.454115994044D1,8.767778518431D1,                   21P    109
1.835193331677D2,7.412315036772D1,9.009343795417D1,                   21P    110
1.822946133554D2,7.362848809298D1,9.240354602158D1,                   21P    111
1.808892822191D2,7.306087720786D1,9.459080856460D1,                   21P    112
1.793138631383D2,7.242456808771D1,9.663884446886D1,                   21P    113
1.775801532542D2,7.172432557804D1,9.853231498508D1,                   21P    114
1.757011351818D2,7.096539333521D1,1.002570385702D2,                   21P    115
1.736908797962D2,7.015345456202D1,1.018000971362D2,                   21P    116
1.715644410597D2,6.929458952862D1,1.031499326002D2,                   21P    117
1.693377427841D2,6.839522983581D1,1.042964341731D2,                   21P    118
1.670274615044D2,6.746211110802D1,1.052310114058D2,                   21P    119
1.646508939123D2,6.650221945003D1,1.059466685962D2,                   21P    120
1.622258562225D2,6.552275080098D1,1.064380197244D2,                   21P    121
1.597704462238D2,6.453101482741D1,1.067014684240D2,                   21P    122
1.573032993410D2,6.353453834607D1,1.067347145019D2,                   21P    123
1.556624089717D2,6.287178548251D1,1.066037406628D2,                   21P    124
1.548465818984D2,6.254227429812D1,1.065D2,0D0,1D0,0D0,0D0,1D0;        21P    125
126,41,3,0,0,1,0,0D0,0D0,0D0,0D0,2.564218623166D-2,                   23P    126
5.128403093588D-2,7.692583985532D-2,1.025674937311D-1,                23P    127
1.282090010067D-1,1.538503703067D-1,1.794916104169D-1,                23P    128
2.051327302856D-1,2.307737390003D-1,2.564146457824D-1,                23P    129
2.820554599743D-1,3.076961910293D-1,3.333368484956D-1,                23P    130
3.589774420115D-1,3.846179812884D-1,4.102584761006D-1,                23P    131
4.358989362758D-1,4.615393716815D-1,4.871797922142D-1,                23P    132
5.128202077859D-1,5.384606283185D-1,5.641010637243D-1,                23P    133
5.897415238995D-1,6.153820187117D-1,6.410225579885D-1,                23P    134
6.666631515045D-1,6.923038089707D-1,7.179445400257D-1,                23P    135
7.435853542177D-1,7.692262609997D-1,7.948672697144D-1,                23P    136
8.205083895831D-1,8.461496296933D-1,8.717909989933D-1,                23P    137
8.974325062690D-1,9.230741601445D-1,9.487159690645D-1,                23P    138
9.743578137680D-1,1D0,1D0,1D0,1D0,1D0,1D0,1D0,1D0,1D0,1D0,1D0,        23P    139
1D0,1D0,1D0,1D0,1D0,1D0,1D0,1D0,1D0,1D0,1D0,1D0,1D0,1D0,1D0,1D0,      23P    140
1D0,1D0,1D0,1D0,1D0,1D0,1D0,1D0,1D0,1D0,1D0,1D0,1D0,1D0,1D0,1D0,      23P    141
1D0,1D0,1D0,1.664851947334D2,-1.310266898655D1,4.55D1,                23P    142
1.674916022536D2,-1.318187497614D1,4.511254904226D1,                  23P    143
1.695444941797D2,-1.334344107466D1,4.443822119175D1,                  23P    144
1.727072265829D2,-1.359235351302D1,4.373746093854D1,                  23P    145
1.759240318354D2,-1.384552157691D1,4.335514156577D1,                  23P    146
1.791626560852D2,-1.410040683313D1,4.329464223940D1,                  23P    147
1.823913050304D2,-1.435450701586D1,4.355665738032D1,                  23P    148
1.855781051625D2,-1.460531362556D1,4.413857033476D1,                  23P    149
1.886916457444D2,-1.485035458363D1,4.503464571071D1,                  23P    150
1.917012259364D2,-1.508721368156D1,4.623604162301D1,                  23P    151
1.945771741164D2,-1.531355571206D1,4.773090886563D1,                  23P    152
1.972911358209D2,-1.552714913047D1,4.950450462227D1,                  23P    153
1.998163543802D2,-1.572588814119D1,5.153933872766D1,                  23P    154
2.021279342740D2,-1.590781342429D1,5.381534591030D1,                  23P    155
2.042030865469D2,-1.607113145010D1,5.631008369254D1,                  23P    156
2.060213533494D2,-1.621423215091D1,5.899895362951D1,                  23P    157
2.075648095322D2,-1.633570478691D1,6.185544380556D1,                  23P    158
2.088182392725D2,-1.643435184685D1,6.485139017258D1,                  23P    159
2.097692860033D2,-1.650920084783D1,6.795725416275D1,                  23P    160
2.104085741660D2,-1.655951391740D1,7.114241383924D1,                  23P    161
2.107298015904D2,-1.658479506398D1,7.437546571721D1,                  23P    162
2.107298015904D2,-1.658479506398D1,7.762453428279D1,                  23P    163
2.104085741660D2,-1.655951391740D1,8.085758616076D1,                  23P    164
2.097692860033D2,-1.650920084783D1,8.404274583725D1,                  23P    165
2.088182392725D2,-1.643435184685D1,8.714860982742D1,                  23P    166
2.075648095322D2,-1.633570478691D1,9.014455619444D1,                  23P    167
2.060213533494D2,-1.621423215091D1,9.300104637049D1,                  23P    168
2.042030865469D2,-1.607113145010D1,9.568991630746D1,                  23P    169
2.021279342740D2,-1.590781342429D1,9.818465408970D1,                  23P    170
1.998163543802D2,-1.572588814119D1,1.004606612723D2,                  23P    171
1.972911358209D2,-1.552714913047D1,1.024954953777D2,                  23P    172
1.945771741164D2,-1.531355571206D1,1.042690911344D2,                  23P    173
1.917012259364D2,-1.508721368156D1,1.057639583770D2,                  23P    174
1.886916457444D2,-1.485035458363D1,1.069653542893D2,                  23P    175
1.855781051625D2,-1.460531362556D1,1.078614296652D2,                  23P    176
1.823913050304D2,-1.435450701586D1,1.084433426197D2,                  23P    177
1.791626560852D2,-1.410040683313D1,1.087053577606D2,                  23P    178
1.759240318354D2,-1.384552157691D1,1.086448584342D2,                  23P    179
1.727072265829D2,-1.359235351302D1,1.082625390615D2,                  23P    180
1.695444941797D2,-1.334344107466D1,1.075617788082D2,                  23P    181
1.674916022536D2,-1.318187497614D1,1.068874509577D2,                  23P    182
1.664851947334D2,-1.310266898655D1,1.065D2,0D0,1D0,0D0,0D0,1D0;       23P    183
126,41,3,0,0,1,0,0D0,0D0,0D0,0D0,2.564233634436D-2,                   25P    184
5.128428832873D-2,7.692619970118D-2,1.025679361920D-1,                25P    185
1.282095071934D-1,1.538509223259D-1,1.794921914163D-1,                25P    186
2.051333244945D-1,2.307743317685D-1,2.564152236153D-1,                25P    187
2.820560105654D-1,3.076967032888D-1,3.333373125771D-1,                25P    188
3.589778493347D-1,3.846183245592D-1,4.102587493281D-1,                25P    189
4.358991347861D-1,4.615394921284D-1,4.871798325867D-1,                25P    190
5.128201674133D-1,5.384605078717D-1,5.641008652139D-1,                25P    191
5.897412506719D-1,6.153816754408D-1,6.410221506654D-1,                25P    192
6.666626874230D-1,6.923032967112D-1,7.179439894346D-1,                25P    193
7.435847763847D-1,7.692256682315D-1,7.948666755055D-1,                25P    194
8.205078085838D-1,8.461490776741D-1,8.717904928066D-1,                25P    195
8.974320638081D-1,9.230738002986D-1,9.487157116716D-1,                25P    196
9.743576636553D-1,1D0,1D0,1D0,1D0,1D0,1D0,1D0,1D0,1D0,1D0,1D0,        25P    197
1D0,1D0,1D0,1D0,1D0,1D0,1D0,1D0,1D0,1D0,1D0,1D0,1D0,1D0,1D0,1D0,      25P    198
1D0,1D0,1D0,1D0,1D0,1D0,1D0,1D0,1D0,1D0,1D0,1D0,1D0,1D0,1D0,1D0,      25P    199
1D0,1D0,1D0,1.542878819294D2,-6.390813320497D1,4.55D1,                25P    200
1.552771962735D2,-6.431792062376D1,4.493662142826D1,                  25P    201
1.573127279249D2,-6.516106544038D1,4.392289977031D1,                  25P    202
1.604951075624D2,-6.647925024690D1,4.275780613618D1,                  25P    203
1.637735426751D2,-6.783722253391D1,4.196187897411D1,                  25P    204
1.671109867725D2,-6.921963714269D1,4.154354378917D1,                  25P    205
1.704705849889D2,-7.061122828808D1,4.150754215031D1,                  25P    206
1.738150137816D2,-7.199653605241D1,4.185423759632D1,                  25P    207
1.771071808142D2,-7.336019628690D1,4.257978432318D1,                  25P    208
1.803105581045D2,-7.468707860596D1,4.367612420994D1,                  25P    209
1.833896080999D2,-7.596246287328D1,4.513108865205D1,                  25P    210
1.863101721647D2,-7.717220011869D1,4.692853039644D1,                  25P    211
1.890398508817D2,-7.830287006417D1,4.904850365477D1,                  25P    212
1.915483629217D2,-7.934192977253D1,5.146748520617D1,                  25P    213
1.938078809257D2,-8.027785277422D1,5.415863545416D1,                  25P    214
1.957933400289D2,-8.110025686231D1,5.709209616239D1,                  25P    215
1.974827157835D2,-8.180001921181D1,6.023532166980D1,                  25P    216
1.988572683539D2,-8.236937752865D1,6.355343988575D1,                  25P    217
1.999017502925D2,-8.280201611328D1,6.700963907073D1,                  25P    218
2.006045755907D2,-8.309313588374D1,7.056557611351D1,                  25P    219
2.009579481331D2,-8.323950758339D1,7.418180177986D1,                  25P    220
2.009579481331D2,-8.323950758339D1,7.781819822014D1,                  25P    221
2.006045755907D2,-8.309313588374D1,8.143442388649D1,                  25P    222
1.999017502925D2,-8.280201611328D1,8.499036092927D1,                  25P    223
1.988572683539D2,-8.236937752865D1,8.844656011425D1,                  25P    224
1.974827157835D2,-8.180001921181D1,9.176467833020D1,                  25P    225
1.957933400289D2,-8.110025686231D1,9.490790383761D1,                  25P    226
1.938078809257D2,-8.027785277422D1,9.784136454583D1,                  25P    227
1.915483629217D2,-7.934192977253D1,1.005325147938D2,                  25P    228
1.890398508817D2,-7.830287006417D1,1.029514963452D2,                  25P    229
1.863101721647D2,-7.717220011869D1,1.050714696036D2,                  25P    230
1.833896080999D2,-7.596246287328D1,1.068689113479D2,                  25P    231
1.803105581045D2,-7.468707860596D1,1.083238757901D2,                  25P    232
1.771071808142D2,-7.336019628690D1,1.094202156768D2,                  25P    233
1.738150137816D2,-7.199653605241D1,1.101457624037D2,                  25P    234
1.704705849889D2,-7.061122828808D1,1.104924578497D2,                  25P    235
1.671109867725D2,-6.921963714270D1,1.104564562108D2,                  25P    236
1.637735426751D2,-6.783722253391D1,1.100381210259D2,                  25P    237
1.604951075625D2,-6.647925024690D1,1.092421938638D2,                  25P    238
1.573127279249D2,-6.516106544038D1,1.080771002297D2,                  25P    239
1.552771962736D2,-6.431792062377D1,1.070633785717D2,                  25P    240
1.542878819294D2,-6.390813320497D1,1.065D2,0D0,1D0,0D0,0D0,1D0;       25P    241
126,41,3,0,0,1,0,0D0,0D0,0D0,0D0,2.564742972696D-2,                   27P    242
5.127045814710D-2,7.691214629345D-2,1.025538344328D-1,                27P    243
1.281955225647D-1,1.538372106918D-1,1.794788988113D-1,                27P    244
2.051205869267D-1,2.307622750368D-1,2.564039631423D-1,                27P    245
2.820456512434D-1,3.076873393415D-1,3.333290274353D-1,                27P    246
3.589707155269D-1,3.846124036165D-1,4.102540917035D-1,                27P    247
4.358957797893D-1,4.615374678741D-1,4.871791559585D-1,                27P    248
5.128208440415D-1,5.384625321259D-1,5.641042202108D-1,                27P    249
5.897459082965D-1,6.153875963835D-1,6.410292844731D-1,                27P    250
6.666709725648D-1,6.923126606585D-1,7.179543487566D-1,                27P    251
7.435960368577D-1,7.692377249632D-1,7.948794130733D-1,                27P    252
8.205211011887D-1,8.461627893082D-1,8.718044774353D-1,                27P    253
8.974461655673D-1,9.230878537063D-1,9.487295418533D-1,                27P    254
9.743525702727D-1,1D0,1D0,1D0,1D0,1D0,1D0,1D0,1D0,1D0,1D0,1D0,        27P    255
1D0,1D0,1D0,1D0,1D0,1D0,1D0,1D0,1D0,1D0,1D0,1D0,1D0,1D0,1D0,1D0,      27P    256
1D0,1D0,1D0,1D0,1D0,1D0,1D0,1D0,1D0,1D0,1D0,1D0,1D0,1D0,1D0,1D0,      27P    257
1D0,1D0,1D0,1.269877962552D2,-1.084578240711D2,4.55D1,                27P    258
1.278617250395D2,-1.092042297662D2,4.482143891810D1,                  27P    259
1.296363031058D2,-1.107198626175D2,4.352507782151D1,                  27P    260
1.324117808481D2,-1.130903445501D2,4.186289264853D1,                  27P    261
1.353279603802D2,-1.155809971638D2,4.068410901124D1,                  27P    262
1.383207016941D2,-1.181370397167D2,3.991464600506D1,                  27P    263
1.413609821895D2,-1.207336845661D2,3.958777027763D1,                  27P    264
1.444097965791D2,-1.233376180499D2,3.970110876321D1,                  27P    265
1.474307460614D2,-1.259177526545D2,4.025498503576D1,                  27P    266
1.503870436041D2,-1.284426692862D2,4.124222753650D1,                  27P    267
1.532428807448D2,-1.308817846289D2,4.265098636578D1,                  27P    268
1.559636151212D2,-1.332055113100D2,4.446414552623D1,                  27P    269
1.585162566657D2,-1.353856731501D2,4.665972647305D1,                  27P    270
1.608698499477D2,-1.373958317137D2,4.921110212083D1,                  27P    271
1.629958543005D2,-1.392116109686D2,5.208733380898D1,                  27P    272
1.648684886488D2,-1.408109917964D2,5.525354270925D1,                  27P    273
1.664650444840D2,-1.421745792985D2,5.867133379463D1,                  27P    274
1.677661611476D2,-1.432858379104D2,6.229926116638D1,                  27P    275
1.687560606331D2,-1.441312919416D2,6.609333072073D1,                  27P    276
1.694227389117D2,-1.447006889828D2,7.000753362465D1,                  27P    277
1.697581115010D2,-1.449871242337D2,7.399440424751D1,                  27P    278
1.697581115010D2,-1.449871242337D2,7.800559575249D1,                  27P    279
1.694227389117D2,-1.447006889828D2,8.199246637535D1,                  27P    280
1.687560606331D2,-1.441312919416D2,8.590666927927D1,                  27P    281
1.677661611476D2,-1.432858379104D2,8.970073883362D1,                  27P    282
1.664650444840D2,-1.421745792985D2,9.332866620537D1,                  27P    283
1.648684886488D2,-1.408109917964D2,9.674645729075D1,                  27P    284
1.629958543005D2,-1.392116109686D2,9.991266619102D1,                  27P    285
1.608698499477D2,-1.373958317137D2,1.027888978792D2,                  27P    286
1.585162566657D2,-1.353856731501D2,1.053402735269D2,                  27P    287
1.559636151212D2,-1.332055113100D2,1.075358544738D2,                  27P    288
1.532428807448D2,-1.308817846289D2,1.093490136342D2,                  27P    289
1.503870436041D2,-1.284426692862D2,1.107577724635D2,                  27P    290
1.474307460614D2,-1.259177526545D2,1.117450149642D2,                  27P    291
1.444097965791D2,-1.233376180499D2,1.122988912368D2,                  27P    292
1.413609821895D2,-1.207336845661D2,1.124122297224D2,                  27P    293
1.383207016941D2,-1.181370397167D2,1.120853539949D2,                  27P    294
1.353279603802D2,-1.155809971638D2,1.113158909888D2,                  27P    295
1.324117808481D2,-1.130903445501D2,1.101371073515D2,                  27P    296
1.296363031058D2,-1.107198626175D2,1.084749221785D2,                  27P    297
1.278617250395D2,-1.092042297662D2,1.071785610819D2,                  27P    298
1.269877962552D2,-1.084578240711D2,1.065D2,0D0,1D0,0D0,0D0,1D0;       27P    299
126,41,3,0,0,1,0,0D0,0D0,0D0,0D0,2.564216299537D-2,                   29P    300
5.128868887836D-2,7.692521350590D-2,1.025654951136D-1,                29P    301
1.282054310293D-1,1.538449876936D-1,1.794844571963D-1,                29P    302
2.051243082287D-1,2.307645126685D-1,2.564050374772D-1,                29P    303
2.820458502446D-1,3.076869191310D-1,3.333282128032D-1,                29P    304
3.589697003816D-1,3.846113513736D-1,4.102531356170D-1,                29P    305
4.358950232206D-1,4.615369845031D-1,4.871789899329D-1,                29P    306
5.128210100672D-1,5.384630154969D-1,5.641049767794D-1,                29P    307
5.897468643830D-1,6.153886486264D-1,6.410302996185D-1,                29P    308
6.666717871968D-1,6.923130808690D-1,7.179541497554D-1,                29P    309
7.435949625228D-1,7.692354873315D-1,7.948756917713D-1,                29P    310
8.205155428037D-1,8.461550123065D-1,8.717945689707D-1,                29P    311
8.974345048865D-1,9.230747864939D-1,9.487113111220D-1,                29P    312
9.743578370043D-1,1D0,1D0,1D0,1D0,1D0,1D0,1D0,1D0,1D0,1D0,1D0,        29P    313
1D0,1D0,1D0,1D0,1D0,1D0,1D0,1D0,1D0,1D0,1D0,1D0,1D0,1D0,1D0,1D0,      29P    314
1D0,1D0,1D0,1D0,1D0,1D0,1D0,1D0,1D0,1D0,1D0,1D0,1D0,1D0,1D0,1D0,      29P    315
1D0,1D0,1D0,8.725726030756D1,-1.423909074471D2,4.55D1,                29P    316
8.791735534900D1,-1.434680846542D2,4.477729212025D1,                  29P    317
8.922623336999D1,-1.456039794609D2,4.329602359226D1,                  29P    318
9.123076857588D1,-1.488750836186D2,4.119838194844D1,                  29P    319
9.336249489106D1,-1.523537448025D2,3.960929841681D1,                  29P    320
9.557174483851D1,-1.559589130566D2,3.848805387149D1,                  29P    321
9.783432957714D1,-1.596511157795D2,3.785870354618D1,                  29P    322
1.001194111171D2,-1.633800299458D2,3.772695028647D1,                  29P    323
1.023974822837D2,-1.670975042224D2,3.809518951467D1,                  29P    324
1.046387281045D2,-1.707548849963D2,3.895843743793D1,                  29P    325
1.068139096719D2,-1.743044587068D2,4.030549017536D1,                  29P    326
1.088946058921D2,-1.776998463443D2,4.211875731184D1,                  29P    327
1.108536361659D2,-1.808966932017D2,4.437457251063D1,                  29P    328
1.126654061869D2,-1.838532331672D2,4.704348135896D1,                  29P    329
1.143062452111D2,-1.865308390971D2,5.009063170463D1,                  29P    330
1.157547148805D2,-1.888945267708D2,5.347622742420D1,                  29P    331
1.169918897556D2,-1.909134126781D2,5.715604880642D1,                  29P    332
1.180016047596D2,-1.925611178109D2,6.108203030046D1,                  29P    333
1.187706665942D2,-1.938161126631D2,6.520288872750D1,                  29P    334
1.192890262790D2,-1.946619987893D2,6.946479355982D1,                  29P    335
1.195499105767D2,-1.950877232707D2,7.381207054500D1,                  29P    336
1.195499105767D2,-1.950877232707D2,7.818792945500D1,                  29P    337
1.192890262790D2,-1.946619987893D2,8.253520644018D1,                  29P    338
1.187706665942D2,-1.938161126631D2,8.679711127250D1,                  29P    339
1.180016047596D2,-1.925611178109D2,9.091796969954D1,                  29P    340
1.169918897556D2,-1.909134126781D2,9.484395119358D1,                  29P    341
1.157547148805D2,-1.888945267708D2,9.852377257580D1,                  29P    342
1.143062452111D2,-1.865308390971D2,1.019093682954D2,                  29P    343
1.126654061869D2,-1.838532331672D2,1.049565186410D2,                  29P    344
1.108536361659D2,-1.808966932017D2,1.076254274894D2,                  29P    345
1.088946058921D2,-1.776998463443D2,1.098812426882D2,                  29P    346
1.068139096719D2,-1.743044587068D2,1.116945098246D2,                  29P    347
1.046387281045D2,-1.707548849963D2,1.130415625621D2,                  29P    348
1.023974822837D2,-1.670975042224D2,1.139048104853D2,                  29P    349
1.001194111171D2,-1.633800299458D2,1.142730497135D2,                  29P    350
9.783432957714D1,-1.596511157795D2,1.141412964538D2,                  29P    351
9.557174483852D1,-1.559589130566D2,1.135119461285D2,                  29P    352
9.336249489106D1,-1.523537448025D2,1.123907015832D2,                  29P    353
9.123076857588D1,-1.488750836186D2,1.108016180516D2,                  29P    354
8.922623336999D1,-1.456039794609D2,1.087039764077D2,                  29P    355
8.791735534901D1,-1.434680846542D2,1.072227078798D2,                  29P    356
8.725726030756D1,-1.423909074471D2,1.065D2,0D0,1D0,0D0,0D0,1D0;       29P    357
126,41,3,0,0,1,0,0D0,0D0,0D0,0D0,2.564339731531D-2,                   31P    358
5.128608988807D-2,7.691262032299D-2,1.025553738520D-1,                31P    359
1.281984072529D-1,1.538415195514D-1,1.794845100459D-1,                31P    360
2.051271776117D-1,2.307693199795D-1,2.564107330344D-1,                31P    361
2.820512101066D-1,3.076905412661D-1,3.333289586915D-1,                31P    362
3.589684224369D-1,3.846090094855D-1,4.102505102879D-1,                31P    363
4.358927184815D-1,4.615354301824D-1,4.871784432789D-1,                31P    364
5.128215567211D-1,5.384645698176D-1,5.641072815186D-1,                31P    365
5.897494897121D-1,6.153909905146D-1,6.410315775631D-1,                31P    366
6.666710413085D-1,6.923094587339D-1,7.179487898934D-1,                31P    367
7.435892669656D-1,7.692306800205D-1,7.948728223883D-1,                31P    368
8.205154899542D-1,8.461584804486D-1,8.718015927471D-1,                31P    369
8.974446261480D-1,9.230873796768D-1,9.487139101123D-1,                31P    370
9.743566026844D-1,1D0,1D0,1D0,1D0,1D0,1D0,1D0,1D0,1D0,1D0,1D0,        31P    371
1D0,1D0,1D0,1D0,1D0,1D0,1D0,1D0,1D0,1D0,1D0,1D0,1D0,1D0,1D0,1D0,      31P    372
1D0,1D0,1D0,1D0,1D0,1D0,1D0,1D0,1D0,1D0,1D0,1D0,1D0,1D0,1D0,1D0,      31P    373
1D0,1D0,1D0,3.898537576394D1,-1.623857767064D2,4.55D1,                31P    374
3.930605259951D1,-1.637214918559D2,4.473261059438D1,                  31P    375
3.993863891397D1,-1.663564034860D2,4.313158558694D1,                  31P    376
4.089367753227D1,-1.703344256233D2,4.077980467696D1,                  31P    377
4.188487236949D1,-1.744630492509D2,3.869538788794D1,                  31P    378
4.293642618954D1,-1.788430861358D2,3.723994707252D1,                  31P    379
4.401824295321D1,-1.833491772527D2,3.629424329817D1,                  31P    380
4.511925039986D1,-1.879352033172D2,3.590914380896D1,                  31P    381
4.622298618220D1,-1.925325937175D2,3.607999273855D1,                  31P    382
4.731438035755D1,-1.970785776252D2,3.680708172835D1,                  31P    383
4.837815267552D1,-2.015095082167D2,3.807954026375D1,                  31P    384
4.939951206827D1,-2.057637762605D2,3.987980373532D1,                  31P    385
5.036423313504D1,-2.097821286981D2,4.218270366133D1,                  31P    386
5.125889511454D1,-2.135086640357D2,4.495614592683D1,                  31P    387
5.207107518442D1,-2.168916374940D2,4.816156609809D1,                  31P    388
5.278949431231D1,-2.198840685223D2,5.175445278669D1,                  31P    389
5.340416304535D1,-2.224443480546D2,5.568491774638D1,                  31P    390
5.390651250738D1,-2.245367841533D2,5.989827303645D1,                  31P    391
5.428953674287D1,-2.261321949133D2,6.433586292304D1,                  31P    392
5.454789350638D1,-2.272083282810D2,6.893589759005D1,                  31P    393
5.467797915688D1,-2.277501740111D2,7.363431644201D1,                  31P    394
5.467797915688D1,-2.277501740111D2,7.836568355799D1,                  31P    395
5.454789350638D1,-2.272083282810D2,8.306410240995D1,                  31P    396
5.428953674287D1,-2.261321949133D2,8.766413707696D1,                  31P    397
5.390651250738D1,-2.245367841533D2,9.210172696355D1,                  31P    398
5.340416304535D1,-2.224443480546D2,9.631508225362D1,                  31P    399
5.278949431231D1,-2.198840685223D2,1.002455472133D2,                  31P    400
5.207107518442D1,-2.168916374940D2,1.038384339019D2,                  31P    401
5.125889511454D1,-2.135086640357D2,1.070438540732D2,                  31P    402
5.036423313504D1,-2.097821286981D2,1.098172963387D2,                  31P    403
4.939951206827D1,-2.057637762605D2,1.121201962647D2,                  31P    404
4.837815267552D1,-2.015095082167D2,1.139204597362D2,                  31P    405
4.731438035755D1,-1.970785776252D2,1.151929182717D2,                  31P    406
4.622298618220D1,-1.925325937175D2,1.159200072614D2,                  31P    407
4.511925039986D1,-1.879352033172D2,1.160908561910D2,                  31P    408
4.401824295321D1,-1.833491772527D2,1.157057567018D2,                  31P    409
4.293642618954D1,-1.788430861358D2,1.147600529275D2,                  31P    410
4.188487236949D1,-1.744630492508D2,1.133046121120D2,                  31P    411
4.089367753227D1,-1.703344256233D2,1.112201953230D2,                  31P    412
3.993863891397D1,-1.663564034860D2,1.088684144131D2,                  31P    413
3.930605259951D1,-1.637214918559D2,1.072673894056D2,                  31P    414
3.898537576394D1,-1.623857767064D2,1.065D2,0D0,1D0,0D0,0D0,1D0;       31P    415
126,41,3,0,0,1,0,0D0,0D0,0D0,0D0,2.564366597297D-2,                   33P    416
5.128733194619D-2,7.693435361396D-2,1.025689658374D-1,                33P    417
1.282058629742D-1,1.538442784252D-1,1.794847496944D-1,                33P    418
2.051266962034D-1,2.307695442532D-1,2.564127243698D-1,                33P    419
2.820556686378D-1,3.076978080358D-1,3.333385697668D-1,                33P    420
3.589773746043D-1,3.846142348829D-1,4.102528471382D-1,                33P    421
4.358934657174D-1,4.615355107250D-1,4.871784089245D-1,                33P    422
5.128215910755D-1,5.384644892750D-1,5.641065342827D-1,                33P    423
5.897471528619D-1,6.153857651171D-1,6.410226253958D-1,                33P    424
6.666614302332D-1,6.923021919643D-1,7.179443313622D-1,                33P    425
7.435872756302D-1,7.692304557468D-1,7.948733037966D-1,                33P    426
8.205152503056D-1,8.461557215748D-1,8.717941370258D-1,                33P    427
8.974310341627D-1,9.230656463858D-1,9.487126680542D-1,                33P    428
9.743563340267D-1,1D0,1D0,1D0,1D0,1D0,1D0,1D0,1D0,1D0,1D0,1D0,        33P    429
1D0,1D0,1D0,1D0,1D0,1D0,1D0,1D0,1D0,1D0,1D0,1D0,1D0,1D0,1D0,1D0,      33P    430
1D0,1D0,1D0,1D0,1D0,1D0,1D0,1D0,1D0,1D0,1D0,1D0,1D0,1D0,1D0,1D0,      33P    431
1D0,1D0,1D0,-1.310266898655D1,-1.664851947334D2,4.55D1,               33P    432
-1.321821044499D1,-1.679532881599D2,4.467326345957D1,                 33P    433
-1.344678501022D1,-1.708576033831D2,4.296276588047D1,                 33P    434
-1.379049786808D1,-1.752248893256D2,4.042085715981D1,                 33P    435
-1.413835122382D1,-1.796447852818D2,3.795452633882D1,                 33P    436
-1.451033211363D1,-1.843712506256D2,3.612394931512D1,                 33P    437
-1.489621403672D1,-1.892743453445D2,3.486803448095D1,                 33P    438
-1.529140504903D1,-1.942957232567D2,3.422004860791D1,                 33P    439
-1.568981983459D1,-1.993580630920D2,3.418560820543D1,                 33P    440
-1.608566830427D1,-2.043877947924D2,3.476640012773D1,                 33P    441
-1.647309938753D1,-2.093105734573D2,3.595365385650D1,                 33P    442
-1.684641043087D1,-2.140539400043D2,3.772999523746D1,                 33P    443
-1.720010073541D1,-2.185480014269D2,4.006923918764D1,                 33P    444
-1.752896171439D1,-2.227265763557D2,4.293690335134D1,                 33P    445
-1.782815201204D1,-2.265281495326D2,4.629068827852D1,                 33P    446
-1.809327223386D1,-2.298968213507D2,5.008114476231D1,                 33P    447
-1.832043881340D1,-2.327832464197D2,5.425263004627D1,                 33P    448
-1.850632301899D1,-2.351451291931D2,5.874401396338D1,                 33P    449
-1.864819424472D1,-2.369477740334D2,6.348947521158D1,                 33P    450
-1.874395686177D1,-2.381645534517D2,6.841920331556D1,                 33P    451
-1.879219485093D1,-2.387774752180D2,7.346059851637D1,                 33P    452
-1.879219485093D1,-2.387774752180D2,7.853940148363D1,                 33P    453
-1.874395686177D1,-2.381645534517D2,8.358079668444D1,                 33P    454
-1.864819424472D1,-2.369477740334D2,8.851052478842D1,                 33P    455
-1.850632301899D1,-2.351451291931D2,9.325598603662D1,                 33P    456
-1.832043881340D1,-2.327832464197D2,9.774736995373D1,                 33P    457
-1.809327223386D1,-2.298968213507D2,1.019188552377D2,                 33P    458
-1.782815201204D1,-2.265281495326D2,1.057093117215D2,                 33P    459
-1.752896171439D1,-2.227265763557D2,1.090630966487D2,                 33P    460
-1.720010073541D1,-2.185480014269D2,1.119307608124D2,                 33P    461
-1.684641043087D1,-2.140539400043D2,1.142700047625D2,                 33P    462
-1.647309938753D1,-2.093105734573D2,1.160463461435D2,                 33P    463
-1.608566830427D1,-2.043877947924D2,1.172335998723D2,                 33P    464
-1.568981983459D1,-1.993580630920D2,1.178143917946D2,                 33P    465
-1.529140504903D1,-1.942957232567D2,1.177799513921D2,                 33P    466
-1.489621403672D1,-1.892743453444D2,1.171319655190D2,                 33P    467
-1.451033211363D1,-1.843712506256D2,1.158760506849D2,                 33P    468
-1.413835122382D1,-1.796447852818D2,1.140454736612D2,                 33P    469
-1.379049786808D1,-1.752248893256D2,1.115791428402D2,                 33P    470
-1.344678501022D1,-1.708576033831D2,1.090372341195D2,                 33P    471
-1.321821044499D1,-1.679532881599D2,1.073267365404D2,                 33P    472
-1.310266898655D1,-1.664851947334D2,1.065D2,0D0,1D0,0D0,0D0,1D0;      33P    473
126,41,3,0,0,1,0,0D0,0D0,0D0,0D0,2.564477391799D-2,                   35P    474
5.128954783573D-2,7.693637457470D-2,1.025619069111D-1,                35P    475
1.282057201963D-1,1.538482314400D-1,1.794882977889D-1,                35P    476
2.051250112510D-1,2.307633147845D-1,2.564046738035D-1,                35P    477
2.820479390305D-1,3.076919718311D-1,3.333356378652D-1,                35P    478
3.589778007423D-1,3.846173156670D-1,4.102537852238D-1,                35P    479
4.358927125766D-1,4.615344914015D-1,4.871779747611D-1,                35P    480
5.128220252389D-1,5.384655085985D-1,5.641072874234D-1,                35P    481
5.897462147762D-1,6.153826843330D-1,6.410221992578D-1,                35P    482
6.666643621349D-1,6.923080281689D-1,7.179520609695D-1,                35P    483
7.435953261965D-1,7.692366852155D-1,7.948749887490D-1,                35P    484
8.205117022111D-1,8.461517685601D-1,8.717942798037D-1,                35P    485
8.974380930889D-1,9.230636254251D-1,9.487104521646D-1,                35P    486
9.743552260817D-1,1D0,1D0,1D0,1D0,1D0,1D0,1D0,1D0,1D0,1D0,1D0,        35P    487
1D0,1D0,1D0,1D0,1D0,1D0,1D0,1D0,1D0,1D0,1D0,1D0,1D0,1D0,1D0,1D0,      35P    488
1D0,1D0,1D0,1D0,1D0,1D0,1D0,1D0,1D0,1D0,1D0,1D0,1D0,1D0,1D0,1D0,      35P    489
1D0,1D0,1D0,-6.390813320497D1,-1.542878819293D2,4.55D1,               35P    490
-6.450690337828D1,-1.557334410025D2,4.460675127576D1,                 35P    491
-6.569865463956D1,-1.586105830605D2,4.279380238223D1,                 35P    492
-6.749103765971D1,-1.629377784566D2,4.009634934843D1,                 35P    493
-6.928150671963D1,-1.672603531441D2,3.739075777170D1,                 35P    494
-7.116235084654D1,-1.718011125440D2,3.510921191001D1,                 35P    495
-7.315020001339D1,-1.766002049626D2,3.356090809790D1,                 35P    496
-7.519297900048D1,-1.815319096981D2,3.264003501078D1,                 35P    497
-7.726445998130D1,-1.865329071763D2,3.239584700170D1,                 35P    498
-7.933117060187D1,-1.915223879859D2,3.282266432716D1,                 35P    499
-8.136178218258D1,-1.964247180040D2,3.391640723736D1,                 35P    500
-8.332497205886D1,-2.011642776288D2,3.565966881609D1,                 35P    501
-8.519042918445D1,-2.056678895214D2,3.802583660887D1,                 35P    502
-8.692925153800D1,-2.098657780300D2,4.097831013576D1,                 35P    503
-8.851451933507D1,-2.136929530456D2,4.447140521926D1,                 35P    504
-8.992170506552D1,-2.170901999209D2,4.845099444747D1,                 35P    505
-9.112907603243D1,-2.200050512840D2,5.285542218064D1,                 35P    506
-9.211809319273D1,-2.223927499258D2,5.761686480677D1,                 35P    507
-9.287356419221D1,-2.242166182587D2,6.266217058352D1,                 35P    508
-9.338384159418D1,-2.254485368831D2,6.791380840822D1,                 35P    509
-9.364098476018D1,-2.260693354019D2,7.329062124504D1,                 35P    510
-9.364098476018D1,-2.260693354019D2,7.870937875496D1,                 35P    511
-9.338384159418D1,-2.254485368831D2,8.408619159178D1,                 35P    512
-9.287356419221D1,-2.242166182587D2,8.933782941648D1,                 35P    513
-9.211809319273D1,-2.223927499258D2,9.438313519323D1,                 35P    514
-9.112907603243D1,-2.200050512840D2,9.914457781936D1,                 35P    515
-8.992170506552D1,-2.170901999209D2,1.035490055525D2,                 35P    516
-8.851451933507D1,-2.136929530456D2,1.075285947807D2,                 35P    517
-8.692925153800D1,-2.098657780300D2,1.110216898642D2,                 35P    518
-8.519042918445D1,-2.056678895214D2,1.139741633911D2,                 35P    519
-8.332497205886D1,-2.011642776288D2,1.163403311839D2,                 35P    520
-8.136178218258D1,-1.964247180040D2,1.180835927626D2,                 35P    521
-7.933117060187D1,-1.915223879859D2,1.191773356728D2,                 35P    522
-7.726445998130D1,-1.865329071763D2,1.196041529983D2,                 35P    523
-7.519297900048D1,-1.815319096981D2,1.193599649892D2,                 35P    524
-7.315020001338D1,-1.766002049626D2,1.184390919021D2,                 35P    525
-7.116235084654D1,-1.718011125440D2,1.168907880900D2,                 35P    526
-6.928150671962D1,-1.672603531441D2,1.146092422283D2,                 35P    527
-6.749103765971D1,-1.629377784566D2,1.119036506516D2,                 35P    528
-6.569865463956D1,-1.586105830605D2,1.092061976178D2,                 35P    529
-6.450690337829D1,-1.557334410025D2,1.073932487242D2,                 35P    530
-6.390813320497D1,-1.542878819293D2,1.065D2,0D0,1D0,0D0,0D0,1D0;      35P    531
126,41,3,0,0,1,0,0D0,0D0,0D0,0D0,2.564467287959D-2,                   37P    532
5.128934575948D-2,7.693401863931D-2,1.025703972756D-1,                37P    533
1.282108026139D-1,1.538537818534D-1,1.794974481642D-1,                37P    534
2.051399190560D-1,2.307793044973D-1,2.564144653634D-1,                37P    535
2.820525652235D-1,3.076943161579D-1,3.333378236023D-1,                37P    536
3.589812040624D-1,3.846225732412D-1,4.102600341737D-1,                37P    537
4.358955032872D-1,4.615354160260D-1,4.871781582782D-1,                37P    538
5.128218417218D-1,5.384645839740D-1,5.641044967128D-1,                37P    539
5.897399658263D-1,6.153774267588D-1,6.410187959376D-1,                37P    540
6.666621763978D-1,6.923056838421D-1,7.179474347765D-1,                37P    541
7.435855346366D-1,7.692206955027D-1,7.948600809440D-1,                37P    542
8.205025518359D-1,8.461462181466D-1,8.717891973861D-1,                37P    543
8.974296027245D-1,9.230659813605D-1,9.487106542409D-1,                37P    544
9.743553271201D-1,1D0,1D0,1D0,1D0,1D0,1D0,1D0,1D0,1D0,1D0,1D0,        37P    545
1D0,1D0,1D0,1D0,1D0,1D0,1D0,1D0,1D0,1D0,1D0,1D0,1D0,1D0,1D0,1D0,      37P    546
1D0,1D0,1D0,1D0,1D0,1D0,1D0,1D0,1D0,1D0,1D0,1D0,1D0,1D0,1D0,1D0,      37P    547
1D0,1D0,1D0,-1.084578240711D2,-1.269877962552D2,4.55D1,               37P    548
-1.095334008893D2,-1.282471349060D2,4.454382715751D1,                 37P    549
-1.116830384096D2,-1.307640370640D2,4.262762147105D1,                 37P    550
-1.149165913865D2,-1.345500411640D2,3.977647295056D1,                 37P    551
-1.181179607494D2,-1.382983630936D2,3.684458051876D1,                 37P    552
-1.214373711371D2,-1.421848933057D2,3.421383301509D1,                 37P    553
-1.249724161679D2,-1.463238992462D2,3.234467833949D1,                 37P    554
-1.286261295533D2,-1.506018479782D2,3.115508024748D1,                 37P    555
-1.323502472088D2,-1.549622295194D2,3.069440800596D1,                 37P    556
-1.360815869450D2,-1.593310670305D2,3.096205765849D1,                 37P    557
-1.397605764557D2,-1.636386103028D2,3.195571139283D1,                 37P    558
-1.433279475682D2,-1.678154652220D2,3.365869549028D1,                 37P    559
-1.467265978221D2,-1.717947733972D2,3.604387244625D1,                 37P    560
-1.499019933072D2,-1.755126838231D2,3.907304470860D1,                 37P    561
-1.528027957457D2,-1.789090870996D2,4.269744165363D1,                 37P    562
-1.553820305795D2,-1.819289830856D2,4.685843938184D1,                 37P    563
-1.575979855428D2,-1.845235329931D2,5.148864089392D1,                 37P    564
-1.594149957790D2,-1.866509786396D2,5.651323495966D1,                 37P    565
-1.608039802590D2,-1.882772705155D2,6.185165452522D1,                 37P    566
-1.617426750647D2,-1.893763409214D2,6.741836719831D1,                 37P    567
-1.622158927828D2,-1.899304076813D2,7.312393874834D1,                 37P    568
-1.622158927828D2,-1.899304076813D2,7.887606125166D1,                 37P    569
-1.617426750647D2,-1.893763409214D2,8.458163280169D1,                 37P    570
-1.608039802590D2,-1.882772705155D2,9.014834547478D1,                 37P    571
-1.594149957790D2,-1.866509786396D2,9.548676504034D1,                 37P    572
-1.575979855428D2,-1.845235329931D2,1.005113591061D2,                 37P    573
-1.553820305795D2,-1.819289830856D2,1.051415606182D2,                 37P    574
-1.528027957457D2,-1.789090870996D2,1.093025583464D2,                 37P    575
-1.499019933072D2,-1.755126838231D2,1.129269552914D2,                 37P    576
-1.467265978221D2,-1.717947733972D2,1.159561275537D2,                 37P    577
-1.433279475682D2,-1.678154652220D2,1.183413045097D2,                 37P    578
-1.397605764557D2,-1.636386103028D2,1.200442886072D2,                 37P    579
-1.360815869450D2,-1.593310670305D2,1.210379423415D2,                 37P    580
-1.323502472088D2,-1.549622295194D2,1.213055919940D2,                 37P    581
-1.286261295533D2,-1.506018479782D2,1.208449197525D2,                 37P    582
-1.249724161679D2,-1.463238992462D2,1.196553216605D2,                 37P    583
-1.214373711371D2,-1.421848933058D2,1.177861669849D2,                 37P    584
-1.181179607494D2,-1.382983630936D2,1.151554194812D2,                 37P    585
-1.149165913865D2,-1.345500411640D2,1.122235270494D2,                 37P    586
-1.116830384096D2,-1.307640370640D2,1.093723785289D2,                 37P    587
-1.095334008893D2,-1.282471349061D2,1.074561728425D2,                 37P    588
-1.084578240711D2,-1.269877962552D2,1.065D2,0D0,1D0,0D0,0D0,1D0;      37P    589
126,41,3,0,0,1,0,0D0,0D0,0D0,0D0,2.564533957379D-2,                   39P    590
5.129067914762D-2,7.693601872146D-2,1.025846786484D-1,                39P    591
1.282159702151D-1,1.538512550436D-1,1.794920044731D-1,                39P    592
2.051356620392D-1,2.307794370713D-1,2.564205397047D-1,                39P    593
2.820562319647D-1,3.076930924222D-1,3.333349066662D-1,                39P    594
3.589788714024D-1,3.846221980672D-1,4.102620937219D-1,                39P    595
4.358968114346D-1,4.615352932671D-1,4.871779664460D-1,                39P    596
5.128220335541D-1,5.384647067330D-1,5.641031885654D-1,                39P    597
5.897379062781D-1,6.153778019328D-1,6.410211285977D-1,                39P    598
6.666650933338D-1,6.923069075778D-1,7.179437680353D-1,                39P    599
7.435794602953D-1,7.692205629288D-1,7.948643379608D-1,                39P    600
8.205079955269D-1,8.461487449564D-1,8.717840297849D-1,                39P    601
8.974153213516D-1,9.230639812783D-1,9.487093208527D-1,                39P    602
9.743546604259D-1,1D0,1D0,1D0,1D0,1D0,1D0,1D0,1D0,1D0,1D0,1D0,        39P    603
1D0,1D0,1D0,1D0,1D0,1D0,1D0,1D0,1D0,1D0,1D0,1D0,1D0,1D0,1D0,1D0,      39P    604
1D0,1D0,1D0,1D0,1D0,1D0,1D0,1D0,1D0,1D0,1D0,1D0,1D0,1D0,1D0,1D0,      39P    605
1D0,1D0,1D0,-1.423909074471D2,-8.725726030756D1,4.55D1,               39P    606
-1.438832494758D2,-8.817176867893D1,4.448948684684D1,                 39P    607
-1.468674509486D2,-9.000048969343D1,4.246775538849D1,                 39P    608
-1.513466486660D2,-9.274534558486D1,3.943938911286D1,                 39P    609
-1.558159049774D2,-9.548410937494D1,3.639608331045D1,                 39P    610
-1.603219840621D2,-9.824543818945D1,3.340833091647D1,                 39P    611
-1.651577437264D2,-1.012087955230D2,3.120732556929D1,                 39P    612
-1.701874579659D2,-1.042910083730D2,2.975075655158D1,                 39P    613
-1.753382151410D2,-1.074473964295D2,2.906956062408D1,                 39P    614
-1.805208965346D2,-1.106233476721D2,2.917357961827D1,                 39P    615
-1.856489109269D2,-1.137657989333D2,3.006166274573D1,                 39P    616
-1.906356830335D2,-1.168216968105D2,3.171862351694D1,                 39P    617
-1.953979000836D2,-1.197399871721D2,3.411660361349D1,                 39P    618
-1.998563046183D2,-1.224721009848D2,3.721567916680D1,                 39P    619
-2.039366851090D2,-1.249725613654D2,4.096431188521D1,                 39P    620
-2.075705427955D2,-1.271993922197D2,4.529981494450D1,                 39P    621
-2.106966178637D2,-1.291150534853D2,5.014917852394D1,                 39P    622
-2.132623808712D2,-1.306873550785D2,5.543068089274D1,                 39P    623
-2.152251401894D2,-1.318901355356D2,6.105613617364D1,                 39P    624
-2.165522337222D2,-1.327033794984D2,6.693193476951D1,                 39P    625
-2.172214784385D2,-1.331134931880D2,7.296023920795D1,                 39P    626
-2.172214784385D2,-1.331134931880D2,7.903976079205D1,                 39P    627
-2.165522337222D2,-1.327033794984D2,8.506806523049D1,                 39P    628
-2.152251401894D2,-1.318901355356D2,9.094386382636D1,                 39P    629
-2.132623808712D2,-1.306873550785D2,9.656931910726D1,                 39P    630
-2.106966178637D2,-1.291150534853D2,1.018508214761D2,                 39P    631
-2.075705427955D2,-1.271993922197D2,1.067001850555D2,                 39P    632
-2.039366851090D2,-1.249725613654D2,1.110356881148D2,                 39P    633
-1.998563046183D2,-1.224721009848D2,1.147843208332D2,                 39P    634
-1.953979000836D2,-1.197399871721D2,1.178833963865D2,                 39P    635
-1.906356830335D2,-1.168216968105D2,1.202813764831D2,                 39P    636
-1.856489109269D2,-1.137657989333D2,1.219383372543D2,                 39P    637
-1.805208965346D2,-1.106233476721D2,1.228264203817D2,                 39P    638
-1.753382151410D2,-1.074473964295D2,1.229304393759D2,                 39P    639
-1.701874579659D2,-1.042910083730D2,1.222492434484D2,                 39P    640
-1.651577437264D2,-1.012087955230D2,1.207926744307D2,                 39P    641
-1.603219840621D2,-9.824543818946D1,1.185916690835D2,                 39P    642
-1.558159049774D2,-9.548410937493D1,1.156039166895D2,                 39P    643
-1.513466486660D2,-9.274534558487D1,1.125606108871D2,                 39P    644
-1.468674509486D2,-9.000048969343D1,1.095322446115D2,                 39P    645
-1.438832494759D2,-8.817176867894D1,1.075105131532D2,                 39P    646
-1.423909074471D2,-8.725726030756D1,1.065D2,0D0,1D0,0D0,0D0,1D0;      39P    647
126,41,3,0,0,1,0,0D0,0D0,0D0,0D0,2.564619007368D-2,                   41P    648
5.129238014765D-2,7.693857022148D-2,1.025882133266D-1,                41P    649
1.282147933897D-1,1.538557393558D-1,1.794904650664D-1,                41P    650
2.051292765966D-1,2.307728473296D-1,2.564173447698D-1,                41P    651
2.820589431678D-1,3.076941643009D-1,3.333320825698D-1,                41P    652
3.589752557021D-1,3.846198483086D-1,4.102620353329D-1,                41P    653
4.358980151627D-1,4.615349759219D-1,4.871776878369D-1,                41P    654
5.128223121631D-1,5.384650240781D-1,5.641019848373D-1,                41P    655
5.897379646671D-1,6.153801516914D-1,6.410247442979D-1,                41P    656
6.666679174302D-1,6.923058356991D-1,7.179410568322D-1,                41P    657
7.435826552302D-1,7.692271526704D-1,7.948707234034D-1,                41P    658
8.205095349336D-1,8.461442606442D-1,8.717852066103D-1,                41P    659
8.974117866735D-1,9.230614297783D-1,9.487076198527D-1,                41P    660
9.743538099260D-1,1D0,1D0,1D0,1D0,1D0,1D0,1D0,1D0,1D0,1D0,1D0,        41P    661
1D0,1D0,1D0,1D0,1D0,1D0,1D0,1D0,1D0,1D0,1D0,1D0,1D0,1D0,1D0,1D0,      41P    662
1D0,1D0,1D0,1D0,1D0,1D0,1D0,1D0,1D0,1D0,1D0,1D0,1D0,1D0,1D0,1D0,      41P    663
1D0,1D0,1D0,-1.623857767064D2,-3.898537576393D1,4.55D1,               41P    664
-1.641776603907D2,-3.941556897528D1,4.443605865358D1,                 41P    665
-1.677614810440D2,-4.027596819050D1,4.230835850684D1,                 41P    666
-1.731368923159D2,-4.156649025818D1,3.911571301036D1,                 41P    667
-1.785136638670D2,-4.285733890002D1,3.592675786614D1,                 41P    668
-1.838849094413D2,-4.414686087224D1,3.272437892123D1,                 41P    669
-1.895750895569D2,-4.551295225332D1,3.012696415507D1,                 41P    670
-1.955743825261D2,-4.695325506474D1,2.841976900382D1,                 41P    671
-2.017332345018D2,-4.843186460440D1,2.751101617617D1,                 41P    672
-2.079570118473D2,-4.992606134633D1,2.744919430085D1,                 41P    673
-2.141350184655D2,-5.140926950883D1,2.822675089568D1,                 41P    674
-2.201605601951D2,-5.285587409001D1,2.983264849531D1,                 41P    675
-2.259281430495D2,-5.424054822459D1,3.223813248476D1,                 41P    676
-2.313381035954D2,-5.553936483915D1,3.540158142921D1,                 41P    677
-2.362972511055D2,-5.672995081945D1,3.926848797550D1,                 41P    678
-2.407201394790D2,-5.779179237172D1,4.377228226288D1,                 41P    679
-2.445297190307D2,-5.870639150311D1,4.883477005070D1,                 41P    680
-2.476594510329D2,-5.945777367845D1,5.436746320851D1,                 41P    681
-2.500552565662D2,-6.003295569789D1,6.027437702234D1,                 41P    682
-2.516758677140D2,-6.042203001119D1,6.645379121556D1,                 41P    683
-2.524933644430D2,-6.061829361145D1,7.279928620786D1,                 41P    684
-2.524933644430D2,-6.061829361145D1,7.920071379214D1,                 41P    685
-2.516758677140D2,-6.042203001119D1,8.554620878444D1,                 41P    686
-2.500552565662D2,-6.003295569789D1,9.172562297766D1,                 41P    687
-2.476594510329D2,-5.945777367845D1,9.763253679148D1,                 41P    688
-2.445297190307D2,-5.870639150311D1,1.031652299493D2,                 41P    689
-2.407201394790D2,-5.779179237172D1,1.082277177371D2,                 41P    690
-2.362972511055D2,-5.672995081945D1,1.127315120245D2,                 41P    691
-2.313381035954D2,-5.553936483915D1,1.165984185708D2,                 41P    692
-2.259281430495D2,-5.424054822459D1,1.197618675152D2,                 41P    693
-2.201605601951D2,-5.285587409001D1,1.221673515047D2,                 41P    694
-2.141350184655D2,-5.140926950883D1,1.237732491043D2,                 41P    695
-2.079570118473D2,-4.992606134633D1,1.245508056991D2,                 41P    696
-2.017332345018D2,-4.843186460440D1,1.244889838238D2,                 41P    697
-1.955743825261D2,-4.695325506474D1,1.235802309962D2,                 41P    698
-1.895750895569D2,-4.551295225332D1,1.218730358449D2,                 41P    699
-1.838849094413D2,-4.414686087224D1,1.192756210788D2,                 41P    700
-1.785136638670D2,-4.285733890002D1,1.160732421339D2,                 41P    701
-1.731368923159D2,-4.156649025818D1,1.128842869896D2,                 41P    702
-1.677614810440D2,-4.027596819050D1,1.096916414932D2,                 41P    703
-1.641776603907D2,-3.941556897529D1,1.075639413464D2,                 41P    704
-1.623857767064D2,-3.898537576393D1,1.065D2,0D0,1D0,0D0,0D0,1D0;      41P    705
126,41,3,0,0,1,0,0D0,0D0,0D0,0D0,2.564645117998D-2,                   43P    706
5.129290236003D-2,7.693935354010D-2,1.025841072623D-1,                43P    707
1.282142233002D-1,1.538588074110D-1,1.795007391633D-1,                43P    708
2.051354734334D-1,2.307733379303D-1,2.564168945714D-1,                43P    709
2.820611670703D-1,3.077011845847D-1,3.333350672580D-1,                43P    710
3.589753101060D-1,3.846196395292D-1,4.102630851168D-1,                43P    711
4.359006697387D-1,4.615356038020D-1,4.871777065259D-1,                43P    712
5.128222934741D-1,5.384643961980D-1,5.640993302614D-1,                43P    713
5.897369148832D-1,6.153803604708D-1,6.410246898940D-1,                43P    714
6.666649327420D-1,6.922988154153D-1,7.179388329297D-1,                43P    715
7.435831054286D-1,7.692266620697D-1,7.948645265666D-1,                43P    716
8.204992608367D-1,8.461411925890D-1,8.717857766998D-1,                43P    717
8.974158927378D-1,9.230606464597D-1,9.487070976403D-1,                43P    718
9.743535488197D-1,1D0,1D0,1D0,1D0,1D0,1D0,1D0,1D0,1D0,1D0,1D0,        43P    719
1D0,1D0,1D0,1D0,1D0,1D0,1D0,1D0,1D0,1D0,1D0,1D0,1D0,1D0,1D0,1D0,      43P    720
1D0,1D0,1D0,1D0,1D0,1D0,1D0,1D0,1D0,1D0,1D0,1D0,1D0,1D0,1D0,1D0,      43P    721
1D0,1D0,1D0,-1.664851947334D2,1.310266898655D1,4.55D1,                43P    722
-1.684130780311D2,1.325439669264D1,4.438349420686D1,                  43P    723
-1.722692224154D2,1.355788183745D1,4.215110252568D1,                  43P    724
-1.780511722589D2,1.401293115891D1,3.879879557370D1,                  43P    725
-1.838409279298D2,1.446859481230D1,3.545958029965D1,                  43P    726
-1.895999946921D2,1.492184319621D1,3.207273433667D1,                  43P    727
-1.956118918835D2,1.539498976643D1,2.911695407775D1,                  43P    728
-2.020200507157D2,1.589932280413D1,2.714863748550D1,                  43P    729
-2.086177573343D2,1.641857357614D1,2.601328607512D1,                  43P    730
-2.153110045632D2,1.694534355725D1,2.578216946994D1,                  43P    731
-2.219742018291D2,1.746974855499D1,2.644581811970D1,                  43P    732
-2.284907044778D2,1.798260843597D1,2.799608945738D1,                  43P    733
-2.347429006171D2,1.847466694353D1,3.040432293017D1,                  43P    734
-2.406182593121D2,1.893706770104D1,3.362725636082D1,                  43P    735
-2.460121933378D2,1.936157951536D1,3.760736514203D1,                  43P    736
-2.508288773629D2,1.974066076937D1,4.227394902312D1,                  43P    737
-2.549824675498D2,2.006755540652D1,4.754397504279D1,                  43P    738
-2.583979828720D2,2.033636229207D1,5.332248898348D1,                  43P    739
-2.610142359571D2,2.054226587535D1,5.950561444781D1,                  43P    740
-2.627847257112D2,2.068160644091D1,6.598346637749D1,                  43P    741
-2.636780405548D2,2.075191184384D1,7.264093534316D1,                  43P    742
-2.636780405548D2,2.075191184384D1,7.935906465684D1,                  43P    743
-2.627847257112D2,2.068160644091D1,8.601653362251D1,                  43P    744
-2.610142359571D2,2.054226587535D1,9.249438555218D1,                  43P    745
-2.583979828720D2,2.033636229207D1,9.867751101652D1,                  43P    746
-2.549824675498D2,2.006755540652D1,1.044560249572D2,                  43P    747
-2.508288773629D2,1.974066076937D1,1.097260509769D2,                  43P    748
-2.460121933378D2,1.936157951536D1,1.143926348580D2,                  43P    749
-2.406182593121D2,1.893706770104D1,1.183727436392D2,                  43P    750
-2.347429006171D2,1.847466694353D1,1.215956770698D2,                  43P    751
-2.284907044778D2,1.798260843597D1,1.240039105426D2,                  43P    752
-2.219742018291D2,1.746974855499D1,1.255541818803D2,                  43P    753
-2.153110045632D2,1.694534355725D1,1.262178305301D2,                  43P    754
-2.086177573343D2,1.641857357614D1,1.259867139249D2,                  43P    755
-2.020200507157D2,1.589932280413D1,1.248513625145D2,                  43P    756
-1.956118918835D2,1.539498976643D1,1.228830459222D2,                  43P    757
-1.895999946921D2,1.492184319621D1,1.199272656633D2,                  43P    758
-1.838409279298D2,1.446859481230D1,1.165404197003D2,                  43P    759
-1.780511722589D2,1.401293115891D1,1.132012044263D2,                  43P    760
-1.722692224154D2,1.355788183745D1,1.098488974743D2,                  43P    761
-1.684130780311D2,1.325439669265D1,1.076165057931D2,                  43P    762
-1.664851947334D2,1.310266898655D1,1.065D2,0D0,1D0,0D0,0D0,1D0;       43P    763
126,41,3,0,0,1,0,0D0,0D0,0D0,0D0,2.564640563599D-2,                   45P    764
5.129281127199D-2,7.693921690789D-2,1.025856225437D-1,                45P    765
1.282211920749D-1,1.538621996754D-1,1.795064392028D-1,                45P    766
2.051477123017D-1,2.307811380512D-1,2.564197478006D-1,                45P    767
2.820636144985D-1,3.077065368612D-1,3.333423061934D-1,                45P    768
3.589778557829D-1,3.846206901837D-1,4.102646015532D-1,                45P    769
4.359033889579D-1,4.615367377531D-1,4.871778795269D-1,                45P    770
5.128221204731D-1,5.384632622469D-1,5.640966110421D-1,                45P    771
5.897353984468D-1,6.153793098164D-1,6.410221442172D-1,                45P    772
6.666576938067D-1,6.922934631388D-1,7.179363855015D-1,                45P    773
7.435802521994D-1,7.692188619488D-1,7.948522876983D-1,                45P    774
8.204935607972D-1,8.461378003246D-1,8.717788079251D-1,                45P    775
8.974143774564D-1,9.230607830919D-1,9.487071887284D-1,                45P    776
9.743535943637D-1,1D0,1D0,1D0,1D0,1D0,1D0,1D0,1D0,1D0,1D0,1D0,        45P    777
1D0,1D0,1D0,1D0,1D0,1D0,1D0,1D0,1D0,1D0,1D0,1D0,1D0,1D0,1D0,1D0,      45P    778
1D0,1D0,1D0,1D0,1D0,1D0,1D0,1D0,1D0,1D0,1D0,1D0,1D0,1D0,1D0,1D0,      45P    779
1D0,1D0,1D0,-1.542878819293D2,6.390813320497D1,4.55D1,                45P    780
-1.561574346284D2,6.468252728850D1,4.433168015697D1,                  45P    781
-1.598971637374D2,6.623157380506D1,4.199612132666D1,                  45P    782
-1.655030151359D2,6.855359348293D1,3.848629794675D1,                  45P    783
-1.711219644621D2,7.088103850016D1,3.499917253739D1,                  45P    784
-1.766914798222D2,7.318800729815D1,3.142824338002D1,                  45P    785
-1.824420275965D2,7.556996217735D1,2.817196101543D1,                  45P    786
-1.886027990831D2,7.812183728180D1,2.592767093532D1,                  45P    787
-1.949728467013D2,8.076039739821D1,2.456860724926D1,                  45P    788
-2.014576009541D2,8.344647055837D1,2.416492549138D1,                  45P    789
-2.079316307768D2,8.612810151413D1,2.471187101871D1,                  45P    790
-2.142782555654D2,8.875695957685D1,2.620272734122D1,                  45P    791
-2.203808650910D2,9.128474320821D1,2.860933891277D1,                  45P    792
-2.261263641315D2,9.366460683342D1,3.188741474155D1,                  45P    793
-2.314087402476D2,9.585263866226D1,3.597623585966D1,                  45P    794
-2.361313671740D2,9.780881478518D1,4.080112397282D1,                  45P    795
-2.402079452392D2,9.949738870790D1,4.627378685544D1,                  45P    796
-2.435631363788D2,1.008871543822D2,5.229335555170D1,                  45P    797
-2.461347861415D2,1.019523665916D2,5.874810252481D1,                  45P    798
-2.478758238881D2,1.026735280389D2,6.551987667413D1,                  45P    799
-2.487544611803D2,1.030374715217D2,7.248484587975D1,                  45P    800
-2.487544611803D2,1.030374715217D2,7.951515412025D1,                  45P    801
-2.478758238881D2,1.026735280389D2,8.648012332587D1,                  45P    802
-2.461347861415D2,1.019523665916D2,9.325189747519D1,                  45P    803
-2.435631363788D2,1.008871543822D2,9.970664444829D1,                  45P    804
-2.402079452392D2,9.949738870790D1,1.057262131446D2,                  45P    805
-2.361313671740D2,9.780881478518D1,1.111988760272D2,                  45P    806
-2.314087402476D2,9.585263866226D1,1.160237641403D2,                  45P    807
-2.261263641315D2,9.366460683342D1,1.201125852584D2,                  45P    808
-2.203808650910D2,9.128474320821D1,1.233906610872D2,                  45P    809
-2.142782555654D2,8.875695957685D1,1.257972726588D2,                  45P    810
-2.079316307768D2,8.612810151413D1,1.272881289813D2,                  45P    811
-2.014576009541D2,8.344647055837D1,1.278350745086D2,                  45P    812
-1.949728467013D2,8.076039739821D1,1.274313927507D2,                  45P    813
-1.886027990831D2,7.812183728180D1,1.260723290647D2,                  45P    814
-1.824420275965D2,7.556996217735D1,1.238280389846D2,                  45P    815
-1.766914798222D2,7.318800729816D1,1.205717566200D2,                  45P    816
-1.711219644621D2,7.088103850015D1,1.170008274626D2,                  45P    817
-1.655030151359D2,6.855359348293D1,1.135137020533D2,                  45P    818
-1.598971637374D2,6.623157380506D1,1.100038786733D2,                  45P    819
-1.561574346284D2,6.468252728851D1,1.076683198430D2,                  45P    820
-1.542878819293D2,6.390813320497D1,1.065D2,0D0,1D0,0D0,0D0,1D0;       45P    821
126,41,3,0,0,1,0,0D0,0D0,0D0,0D0,2.564672425734D-2,                   47P    822
5.129344851472D-2,7.694017277225D-2,1.025868970296D-1,                47P    823
1.282317755176D-1,1.538634851486D-1,1.795049253238D-1,                47P    824
2.051491194549D-1,2.307885719489D-1,2.564214218405D-1,                47P    825
2.820625674057D-1,3.077067980687D-1,3.333466185295D-1,                47P    826
3.589793791275D-1,3.846202154216D-1,4.102644680028D-1,                47P    827
4.359046417496D-1,4.615373577003D-1,4.871778700566D-1,                47P    828
5.128221299435D-1,5.384626422997D-1,5.640953582504D-1,                47P    829
5.897355319972D-1,6.153797845784D-1,6.410206208725D-1,                47P    830
6.666533814705D-1,6.922932019313D-1,7.179374325943D-1,                47P    831
7.435785781595D-1,7.692114280511D-1,7.948508805451D-1,                47P    832
8.204950746762D-1,8.461365148514D-1,8.717682244824D-1,                47P    833
8.974131029704D-1,9.230598272275D-1,9.487065514856D-1,                47P    834
9.743532757424D-1,1D0,1D0,1D0,1D0,1D0,1D0,1D0,1D0,1D0,1D0,1D0,        47P    835
1D0,1D0,1D0,1D0,1D0,1D0,1D0,1D0,1D0,1D0,1D0,1D0,1D0,1D0,1D0,1D0,      47P    836
1D0,1D0,1D0,1D0,1D0,1D0,1D0,1D0,1D0,1D0,1D0,1D0,1D0,1D0,1D0,1D0,      47P    837
1D0,1D0,1D0,-1.269877962552D2,1.084578240711D2,4.55D1,                47P    838
-1.285938140717D2,1.098294928688D2,4.428060550303D1,                  47P    839
-1.318060490428D2,1.125730007147D2,4.184215493022D1,                  47P    840
-1.366232054714D2,1.166872409793D2,3.818244854461D1,                  47P    841
-1.414445479976D2,1.208050565089D2,3.452984900118D1,                  47P    842
-1.462502268725D2,1.249094940165D2,3.085094087340D1,                  47P    843
-1.511129604635D2,1.290626608551D2,2.727120609306D1,                  47P    844
-1.563604958759D2,1.335444794971D2,2.475541531369D1,                  47P    845
-1.618057035294D2,1.381951261824D2,2.317149061902D1,                  47P    846
-1.673691598482D2,1.429467667686D2,2.259393921865D1,                  47P    847
-1.729386191512D2,1.477035343878D2,2.302176471155D1,                  47P    848
-1.784109861192D2,1.523773773189D2,2.445016520532D1,                  47P    849
-1.836830924123D2,1.568801814756D2,2.685141138760D1,                  47P    850
-1.886556851904D2,1.611271769240D2,3.018053565218D1,                  47P    851
-1.932339306278D2,1.650373679254D2,3.437397570515D1,                  47P    852
-1.973317118905D2,1.685372037552D2,3.935287584347D1,                  47P    853
-2.008721113761D2,1.715609905746D2,4.502373418026D1,                  47P    854
-2.037884194174D2,1.740517529456D2,5.127976337206D1,                  47P    855
-2.060250332946D2,1.759620016589D2,5.800165878999D1,                  47P    856
-2.075398681616D2,1.772557928605D2,6.506292309599D1,                  47P    857
-2.083044923297D2,1.779088435941D2,7.233098512382D1,                  47P    858
-2.083044923297D2,1.779088435941D2,7.966901487618D1,                  47P    859
-2.075398681616D2,1.772557928605D2,8.693707690401D1,                  47P    860
-2.060250332946D2,1.759620016589D2,9.399834121D1,                     47P    861
-2.037884194174D2,1.740517529456D2,1.007202366279D2,                  47P    862
-2.008721113761D2,1.715609905746D2,1.069762658197D2,                  47P    863
-1.973317118905D2,1.685372037552D2,1.126471241565D2,                  47P    864
-1.932339306278D2,1.650373679254D2,1.176260242948D2,                  47P    865
-1.886556851904D2,1.611271769240D2,1.218194643478D2,                  47P    866
-1.836830924123D2,1.568801814756D2,1.251485886124D2,                  47P    867
-1.784109861192D2,1.523773773189D2,1.275498347947D2,                  47P    868
-1.729386191512D2,1.477035343878D2,1.289782352885D2,                  47P    869
-1.673691598482D2,1.429467667686D2,1.294060607813D2,                  47P    870
-1.618057035294D2,1.381951261824D2,1.288285093810D2,                  47P    871
-1.563604958759D2,1.335444794971D2,1.272445846863D2,                  47P    872
-1.511129604635D2,1.290626608551D2,1.247287939069D2,                  47P    873
-1.462502268725D2,1.249094940165D2,1.211490591266D2,                  47P    874
-1.414445479976D2,1.208050565089D2,1.174701509988D2,                  47P    875
-1.366232054714D2,1.166872409793D2,1.138175514554D2,                  47P    876
-1.318060490428D2,1.125730007147D2,1.101578450698D2,                  47P    877
-1.285938140717D2,1.098294928688D2,1.077193944970D2,                  47P    878
-1.269877962552D2,1.084578240711D2,1.065D2,0D0,1D0,0D0,0D0,1D0;       47P    879
126,41,3,0,0,1,0,0D0,0D0,0D0,0D0,2.564728921197D-2,                   49P    880
5.129457842394D-2,7.694186763595D-2,1.025891568479D-1,                49P    881
1.282404736107D-1,1.538677268488D-1,1.795018666972D-1,                49P    882
2.051449993433D-1,2.307886783682D-1,2.564240704400D-1,                49P    883
2.820602387431D-1,3.077041464441D-1,3.333469449469D-1,                49P    884
3.589805883752D-1,3.846188813027D-1,4.102632539472D-1,                49P    885
4.359048615018D-1,4.615376303557D-1,4.871777361948D-1,                49P    886
5.128222638052D-1,5.384623696443D-1,5.640951384982D-1,                49P    887
5.897367460528D-1,6.153811186973D-1,6.410194116248D-1,                49P    888
6.666530550531D-1,6.922958535559D-1,7.179397612569D-1,                49P    889
7.435759295600D-1,7.692113216318D-1,7.948550006567D-1,                49P    890
8.204981333028D-1,8.461322731512D-1,8.717595263893D-1,                49P    891
8.974108431522D-1,9.230581323638D-1,9.487054215764D-1,                49P    892
9.743527107877D-1,1D0,1D0,1D0,1D0,1D0,1D0,1D0,1D0,1D0,1D0,1D0,        49P    893
1D0,1D0,1D0,1D0,1D0,1D0,1D0,1D0,1D0,1D0,1D0,1D0,1D0,1D0,1D0,1D0,      49P    894
1D0,1D0,1D0,1D0,1D0,1D0,1D0,1D0,1D0,1D0,1D0,1D0,1D0,1D0,1D0,1D0,      49P    895
1D0,1D0,1D0,-8.725726030756D1,1.423909074471D2,4.55D1,                49P    896
-8.840642880565D1,1.442661799995D2,4.423019217880D1,                  49P    897
-9.070478486126D1,1.480167562065D2,4.169055792737D1,                  49P    898
-9.415220458804D1,1.536424339039D2,3.788121820449D1,                  49P    899
-9.760002456302D1,1.592687647470D2,3.407148769163D1,                  49P    900
-1.010465383014D2,1.648929640058D2,3.026300933865D1,                  49P    901
-1.044977001785D2,1.705247483376D2,2.645010814582D1,                  49P    902
-1.082083237354D2,1.765799356491D2,2.361504159533D1,                  49P    903
-1.120877704669D2,1.829106173431D2,2.181917608657D1,                  49P    904
-1.160608062341D2,1.893940224628D2,2.106309402552D1,                  49P    905
-1.200502752243D2,1.959042441651D2,2.137077190349D1,                  49P    906
-1.239785510897D2,2.023146077636D2,2.273374632092D1,                  49P    907
-1.277700625040D2,2.085017920618D2,2.512664625659D1,                  49P    908
-1.313518846582D2,2.143467945871D2,2.850306258524D1,                  49P    909
-1.346543274113D2,2.197358913653D2,3.279741916834D1,                  49P    910
-1.376134446293D2,2.245647317900D2,3.792648991270D1,                  49P    911
-1.401722473271D2,2.287403182893D2,4.379171869512D1,                  49P    912
-1.422815412021D2,2.321823730580D2,5.028009214820D1,                  49P    913
-1.439001830217D2,2.348237564421D2,5.726512389858D1,                  49P    914
-1.449969071403D2,2.366134475453D2,6.461190893783D1,                  49P    915
-1.455505829692D2,2.375169643808D2,7.217911816677D1,                  49P    916
-1.455505829692D2,2.375169643808D2,7.982088183323D1,                  49P    917
-1.449969071403D2,2.366134475453D2,8.738809106217D1,                  49P    918
-1.439001830217D2,2.348237564421D2,9.473487610142D1,                  49P    919
-1.422815412021D2,2.321823730580D2,1.017199078518D2,                  49P    920
-1.401722473271D2,2.287403182893D2,1.082082813049D2,                  49P    921
-1.376134446293D2,2.245647317900D2,1.140735100873D2,                  49P    922
-1.346543274113D2,2.197358913653D2,1.192025808317D2,                  49P    923
-1.313518846582D2,2.143467945871D2,1.234969374148D2,                  49P    924
-1.277700625040D2,2.085017920618D2,1.268733537434D2,                  49P    925
-1.239785510897D2,2.023146077636D2,1.292662536791D2,                  49P    926
-1.200502752243D2,1.959042441651D2,1.306292280965D2,                  49P    927
-1.160608062341D2,1.893940224628D2,1.309369059745D2,                  49P    928
-1.120877704669D2,1.829106173431D2,1.301808239134D2,                  49P    929
-1.082083237354D2,1.765799356491D2,1.283849584047D2,                  49P    930
-1.044977001785D2,1.705247483376D2,1.255498918542D2,                  49P    931
-1.010465383015D2,1.648929640058D2,1.217369906614D2,                  49P    932
-9.760002456302D1,1.592687647470D2,1.179285123084D2,                  49P    933
-9.415220458805D1,1.536424339039D2,1.141187817955D2,                  49P    934
-9.070478486125D1,1.480167562065D2,1.103094420726D2,                  49P    935
-8.840642880566D1,1.442661799995D2,1.077698078212D2,                  49P    936
-8.725726030756D1,1.423909074471D2,1.065D2,0D0,1D0,0D0,0D0,1D0;       49P    937
126,41,3,0,0,1,0,0D0,0D0,0D0,0D0,2.564792340622D-2,                   51P    938
5.129584681245D-2,7.694377021872D-2,1.025916936249D-1,                51P    939
1.282422184191D-1,1.538688944313D-1,1.795044389325D-1,                51P    940
2.051409587907D-1,2.307854248881D-1,2.564273032376D-1,                51P    941
2.820599520005D-1,3.077010775693D-1,3.333457424518D-1,                51P    942
3.589834142991D-1,3.846179297791D-1,4.102618161265D-1,                51P    943
4.359048399551D-1,4.615380563447D-1,4.871775969174D-1,                51P    944
5.128224030826D-1,5.384619436553D-1,5.640951600450D-1,                51P    945
5.897381838735D-1,6.153820702209D-1,6.410165857009D-1,                51P    946
6.666542575482D-1,6.922989224307D-1,7.179400479995D-1,                51P    947
7.435726967624D-1,7.692145751119D-1,7.948590412093D-1,                51P    948
8.204955610675D-1,8.461311055687D-1,8.717577815809D-1,                51P    949
8.974083063751D-1,9.230562297811D-1,9.487041531879D-1,                51P    950
9.743520765935D-1,1D0,1D0,1D0,1D0,1D0,1D0,1D0,1D0,1D0,1D0,1D0,        51P    951
1D0,1D0,1D0,1D0,1D0,1D0,1D0,1D0,1D0,1D0,1D0,1D0,1D0,1D0,1D0,1D0,      51P    952
1D0,1D0,1D0,1D0,1D0,1D0,1D0,1D0,1D0,1D0,1D0,1D0,1D0,1D0,1D0,1D0,      51P    953
1D0,1D0,1D0,-2.799394241452D1,1.646369921618D2,4.55D1,                51P    954
-2.838014913360D1,1.669083375708D2,4.416981630920D1,                  51P    955
-2.915254973530D1,1.714509528953D2,4.150928888273D1,                  51P    956
-3.031122765659D1,1.782653288421D2,3.751945801225D1,                  51P    957
-3.146963601224D1,1.850781194290D2,3.352626619947D1,                  51P    958
-3.262908481012D1,1.918970290281D2,2.954542330308D1,                  51P    959
-3.378447875275D1,1.986920913548D2,2.551911551418D1,                  51P    960
-3.501169109962D1,2.059095295613D2,2.227749159703D1,                  51P    961
-3.630917878085D1,2.135402685991D2,2.022935103802D1,                  51P    962
-3.764065511112D1,2.213709004874D2,1.925389267402D1,                  51P    963
-3.898246124136D1,2.292622836330D2,1.941383790749D1,                  51P    964
-4.030699871610D1,2.370521069675D2,2.069440617515D1,                  51P    965
-4.158819449818D1,2.445870306595D2,2.307341549447D1,                  51P    966
-4.280065509630D1,2.517177113987D2,2.650302945068D1,                  51P    967
-4.392037329987D1,2.583029588203D2,3.091533940687D1,                  51P    968
-4.492496035080D1,2.642111009454D2,3.622207040075D1,                  51P    969
-4.579451594752D1,2.693251008187D2,4.231848883067D1,                  51P    970
-4.651187913170D1,2.735440320141D2,4.908386096542D1,                  51P    971
-4.706275443970D1,2.767838205519D2,5.638334368845D1,                  51P    972
-4.743617741916D1,2.789799826799D2,6.407179872813D1,                  51P    973
-4.762473580687D1,2.800889256554D2,7.199724202268D1,                  51P    974
-4.762473580687D1,2.800889256554D2,8.000275797732D1,                  51P    975
-4.743617741916D1,2.789799826799D2,8.792820127187D1,                  51P    976
-4.706275443970D1,2.767838205519D2,9.561665631155D1,                  51P    977
-4.651187913170D1,2.735440320141D2,1.029161390346D2,                  51P    978
-4.579451594752D1,2.693251008187D2,1.096815111693D2,                  51P    979
-4.492496035080D1,2.642111009454D2,1.157779295992D2,                  51P    980
-4.392037329988D1,2.583029588203D2,1.210846605931D2,                  51P    981
-4.280065509630D1,2.517177113987D2,1.254969705493D2,                  51P    982
-4.158819449818D1,2.445870306595D2,1.289265845055D2,                  51P    983
-4.030699871610D1,2.370521069675D2,1.313055938248D2,                  51P    984
-3.898246124136D1,2.292622836330D2,1.325861620925D2,                  51P    985
-3.764065511112D1,2.213709004874D2,1.327461073260D2,                  51P    986
-3.630917878085D1,2.135402685991D2,1.317706489620D2,                  51P    987
-3.501169109962D1,2.059095295613D2,1.297225084030D2,                  51P    988
-3.378447875275D1,1.986920913548D2,1.264808844858D2,                  51P    989
-3.262908481012D1,1.918970290281D2,1.224545766969D2,                  51P    990
-3.146963601224D1,1.850781194290D2,1.184737338005D2,                  51P    991
-3.031122765659D1,1.782653288422D2,1.144805419878D2,                  51P    992
-2.915254973530D1,1.714509528953D2,1.104907111173D2,                  51P    993
-2.838014913360D1,1.669083375708D2,1.078301836908D2,                  51P    994
-2.799394241452D1,1.646369921618D2,1.065D2,0D0,1D0,0D0,0D0,1D0;       51P    995
126,41,3,0,0,1,0,0D0,0D0,0D0,0D0,2.564808489951D-2,                   53P    996
5.129616979903D-2,7.694425469860D-2,1.025923395981D-1,                53P    997
1.282411695040D-1,1.538687443606D-1,1.795081915406D-1,                53P    998
2.051414336721D-1,2.307847282071D-1,2.564282344627D-1,                53P    999
2.820617379130D-1,3.077007638742D-1,3.333455758180D-1,                53P   1000
3.589848843641D-1,3.846182091909D-1,4.102615760657D-1,                53P   1001
4.359050135142D-1,4.615384254473D-1,4.871775935870D-1,                53P   1002
5.128224064130D-1,5.384615745527D-1,5.640949864858D-1,                53P   1003
5.897384239343D-1,6.153817908092D-1,6.410151156359D-1,                53P   1004
6.666544241820D-1,6.922992361258D-1,7.179382620870D-1,                53P   1005
7.435717655373D-1,7.692152717929D-1,7.948585663279D-1,                53P   1006
8.204918084594D-1,8.461312556394D-1,8.717588304960D-1,                53P   1007
8.974076604020D-1,9.230557453012D-1,9.487038302013D-1,                53P   1008
9.743519151002D-1,1D0,1D0,1D0,1D0,1D0,1D0,1D0,1D0,1D0,1D0,1D0,        53P   1009
1D0,1D0,1D0,1D0,1D0,1D0,1D0,1D0,1D0,1D0,1D0,1D0,1D0,1D0,1D0,1D0,      53P   1010
1D0,1D0,1D0,1D0,1D0,1D0,1D0,1D0,1D0,1D0,1D0,1D0,1D0,1D0,1D0,1D0,      53P   1011
1D0,1D0,1D0,-3.067740231864D-14,1.67D2,4.55D1,                        53P   1012
-3.110902785406D-14,1.693496599766D2,4.414342313433D1,                53P   1013
-3.197225955787D-14,1.740488745007D2,4.143007833559D1,                53P   1014
-3.326722331579D-14,1.810983288622D2,3.736120754189D1,                53P   1015
-3.456178036601D-14,1.881455692099D2,3.328832433279D1,                53P   1016
-3.585786059393D-14,1.952011013510D2,2.923030508979D1,                53P   1017
-3.714796090472D-14,2.022240803393D2,2.511778039230D1,                53P   1018
-3.851036929231D-14,2.096406861642D2,2.170460205016D1,                53P   1019
-3.995725381854D-14,2.175171586690D2,1.954307621200D1,                53P   1020
-4.144339503229D-14,2.256073346271D2,1.847086037541D1,                53P   1021
-4.294324294518D-14,2.337721263800D2,1.856477595290D1,                53P   1022
-4.442542292789D-14,2.418407384008D2,1.980807422918D1,                53P   1023
-4.586043028116D-14,2.496525545874D2,2.217977320822D1,                53P   1024
-4.721946407814D-14,2.570507899966D2,2.563160759926D1,                53P   1025
-4.847537027501D-14,2.638876248986D2,3.009449763120D1,                53P   1026
-4.960276363231D-14,2.700248684864D2,3.547818158976D1,                53P   1027
-5.057904206500D-14,2.753394807396D2,4.167513267238D1,                53P   1028
-5.138470977349D-14,2.797253314685D2,4.856125652952D1,                53P   1029
-5.200357324675D-14,2.830942673047D2,5.599797702153D1,                53P   1030
-5.242316654556D-14,2.853784268359D2,6.383570227150D1,                53P   1031
-5.263505653758D-14,2.865319022281D2,7.191773615739D1,                53P   1032
-5.263505653758D-14,2.865319022281D2,8.008226384261D1,                53P   1033
-5.242316654556D-14,2.853784268359D2,8.816429772850D1,                53P   1034
-5.200357324675D-14,2.830942673047D2,9.600202297847D1,                53P   1035
-5.138470977349D-14,2.797253314685D2,1.034387434705D2,                53P   1036
-5.057904206500D-14,2.753394807396D2,1.103248673276D2,                53P   1037
-4.960276363231D-14,2.700248684864D2,1.165218184102D2,                53P   1038
-4.847537027501D-14,2.638876248986D2,1.219055023688D2,                53P   1039
-4.721946407814D-14,2.570507899966D2,1.263683924007D2,                53P   1040
-4.586043028116D-14,2.496525545874D2,1.298202267918D2,                53P   1041
-4.442542292789D-14,2.418407384008D2,1.321919257708D2,                53P   1042
-4.294324294518D-14,2.337721263800D2,1.334352240471D2,                53P   1043
-4.144339503229D-14,2.256073346271D2,1.335291396246D2,                53P   1044
-3.995725381854D-14,2.175171586690D2,1.324569237880D2,                53P   1045
-3.851036929231D-14,2.096406861642D2,1.302953979498D2,                53P   1046
-3.714796090472D-14,2.022240803393D2,1.268822196077D2,                53P   1047
-3.585786059393D-14,1.952011013510D2,1.227696949102D2,                53P   1048
-3.456178036600D-14,1.881455692099D2,1.187116756672D2,                53P   1049
-3.326722331579D-14,1.810983288622D2,1.146387924581D2,                53P   1050
-3.197225955787D-14,1.740488745007D2,1.105699216644D2,                53P   1051
-3.110902785407D-14,1.693496599767D2,1.078565768657D2,                53P   1052
-3.067740231864D-14,1.67D2,1.065D2,0D0,1D0,0D0,0D0,1D0;               53P   1053
124,0D0,-1D0,0D0,0D0,1D0,0D0,0D0,1.655139571931D-11,0D0,0D0,1D0,      55P   1054
1.065D2;                                                              55P   1055
100,0D0,0D0,0D0,1.67D2,0D0,1.180868324581D2,-1.180868324582D2;        57P   1056
124,0D0,-1D0,0D0,0D0,1D0,0D0,0D0,1.655139571931D-11,0D0,0D0,1D0,      59P   1057
4.55D1;                                                               59P   1058
100,0D0,0D0,0D0,1.67D2,0D0,1.180868324581D2,-1.180868324582D2;        61P   1059
S      1G      4D     62P   1059                                        T      1
